<svg id="bg" viewBox="0 0 600 500" xmlns="http://www.w3.org/2000/svg">
<path fill-rule="evenodd" clip-rule="evenodd" d="M134.822 452.323L135.08 451.357C136.648 451.776 138.297 452 140 452H145.292V453H140C138.209 453 136.473 452.765 134.822 452.323ZM261.708 453V452H267C268.703 452 270.352 451.776 271.92 451.357L272.178 452.323C270.527 452.765 268.791 453 267 453H261.708ZM277.002 450.323L276.501 449.458C279.384 447.789 281.789 445.384 283.458 442.501L284.323 443.002C282.567 446.037 280.037 448.567 277.002 450.323ZM287 336.81H286V332C286 330.297 285.776 328.648 285.357 327.08L286.323 326.822C286.765 328.473 287 330.209 287 332V336.81ZM284.323 321.998L283.458 322.499C281.789 319.616 279.384 317.211 276.501 315.542L277.002 314.677C280.037 316.433 282.567 318.963 284.323 321.998ZM145.292 312H140C138.209 312 136.473 312.235 134.822 312.677L135.08 313.643C136.648 313.224 138.297 313 140 313H145.292V312ZM129.998 314.677L130.499 315.542C127.616 317.211 125.211 319.616 123.542 322.499L122.677 321.998C124.433 318.963 126.963 316.433 129.998 314.677ZM120 428.19H121V433C121 434.703 121.224 436.352 121.643 437.92L120.677 438.178C120.235 436.527 120 434.791 120 433V428.19ZM122.677 443.002L123.542 442.501C125.211 445.384 127.616 447.789 130.499 449.458L129.998 450.323C126.963 448.567 124.433 446.037 122.677 443.002ZM120 423.381H121V413.762H120V423.381ZM120 408.952H121V399.333H120V408.952ZM120 394.524H121V384.905H120V394.524ZM120 380.095H121V370.476H120V380.095ZM120 365.667H121V356.048H120V365.667ZM120 351.238H121V341.619H120V351.238ZM120 336.81H121V332C121 330.297 121.224 328.648 121.643 327.08L120.677 326.822C120.235 328.473 120 330.209 120 332V336.81ZM150.583 312V313H161.167V312H150.583ZM166.458 312V313H177.042V312H166.458ZM182.333 312V313H192.917V312H182.333ZM198.208 312V313H208.792V312H198.208ZM214.083 312V313H224.667V312H214.083ZM229.958 312V313H240.542V312H229.958ZM245.833 312V313H256.417V312H245.833ZM261.708 312V313H267C268.703 313 270.352 313.224 271.92 313.643L272.178 312.677C270.527 312.235 268.791 312 267 312H261.708ZM287 341.619H286V351.238H287V341.619ZM287 356.048H286V365.667H287V356.048ZM287 370.476H286V380.095H287V370.476ZM287 384.905H286V394.524H287V384.905ZM287 399.333H286V408.952H287V399.333ZM287 413.762H286V423.381H287V413.762ZM287 428.19H286V433C286 434.703 285.776 436.352 285.357 437.92L286.323 438.178C286.765 436.527 287 434.791 287 433V428.19ZM256.417 453V452H245.833V453H256.417ZM240.542 453V452H229.958V453H240.542ZM224.667 453V452H214.083V453H224.667ZM208.792 453V452H198.208V453H208.792ZM192.917 453V452H182.333V453H192.917ZM177.042 453V452H166.458V453H177.042ZM161.167 453V452H150.583V453H161.167Z"/>
<path fill-rule="evenodd" clip-rule="evenodd" d="M267 77H140C129.507 77 121 85.5066 121 96V270C121 280.493 129.507 289 140 289H267C277.493 289 286 280.493 286 270V96C286 85.5066 277.493 77 267 77ZM140 76C128.954 76 120 84.9543 120 96V270C120 281.046 128.954 290 140 290H267C278.046 290 287 281.046 287 270V96C287 84.9543 278.046 76 267 76H140Z"/>
<path fill-rule="evenodd" clip-rule="evenodd" d="M326.822 423.323L327.08 422.357C328.648 422.776 330.297 423 332 423H337.292V424H332C330.209 424 328.473 423.765 326.822 423.323ZM453.708 424V423H459C460.703 423 462.352 422.776 463.92 422.357L464.178 423.323C462.527 423.765 460.791 424 459 424H453.708ZM469.002 421.323L468.501 420.458C471.384 418.789 473.789 416.384 475.458 413.501L476.323 414.002C474.567 417.037 472.037 419.567 469.002 421.323ZM479 76.0455H478V71C478 69.2972 477.776 67.6481 477.357 66.08L478.323 65.8217C478.765 67.4734 479 69.2092 479 71V76.0455ZM476.323 60.9984L475.458 61.4992C473.789 58.6156 471.384 56.2106 468.501 54.5421L469.002 53.6766C472.037 55.4326 474.567 57.9634 476.323 60.9984ZM337.292 51H332C330.209 51 328.473 51.2354 326.822 51.6769L327.08 52.6429C328.648 52.2238 330.297 52 332 52H337.292V51ZM321.998 53.6766L322.499 54.5421C319.616 56.2106 317.211 58.6156 315.542 61.4992L314.677 60.9984C316.433 57.9634 318.963 55.4326 321.998 53.6766ZM312 398.955H313V404C313 405.703 313.224 407.352 313.643 408.92L312.677 409.178C312.235 407.527 312 405.791 312 404V398.955ZM314.677 414.002L315.542 413.501C317.211 416.384 319.616 418.789 322.499 420.458L321.998 421.323C318.963 419.567 316.433 417.037 314.677 414.002ZM312 393.909H313V383.818H312V393.909ZM312 378.773H313V368.682H312V378.773ZM312 363.636H313V353.545H312V363.636ZM312 348.5H313V338.409H312V348.5ZM312 333.364H313V323.273H312V333.364ZM312 318.227H313V308.136H312V318.227ZM312 303.091H313V293H312V303.091ZM312 287.955H313V277.864H312V287.955ZM312 272.818H313V262.727H312V272.818ZM312 257.682H313V247.591H312V257.682ZM312 242.545H313V232.455H312V242.545ZM312 227.409H313V217.318H312V227.409ZM312 212.273H313V202.182H312V212.273ZM312 197.136H313V187.045H312V197.136ZM312 182H313V171.909H312V182ZM312 166.864H313V156.773H312V166.864ZM312 151.727H313V141.636H312V151.727ZM312 136.591H313V126.5H312V136.591ZM312 121.455H313V111.364H312V121.455ZM312 106.318H313V96.2273H312V106.318ZM312 91.1818H313V81.0909H312V91.1818ZM312 76.0455H313V71C313 69.2972 313.224 67.6481 313.643 66.08L312.677 65.8217C312.235 67.4734 312 69.2092 312 71V76.0455ZM342.583 51V52H353.167V51H342.583ZM358.458 51V52H369.042V51H358.458ZM374.333 51V52H384.917V51H374.333ZM390.208 51V52H400.792V51H390.208ZM406.083 51V52H416.667V51H406.083ZM421.958 51V52H432.542V51H421.958ZM437.833 51V52H448.417V51H437.833ZM453.708 51V52H459C460.703 52 462.352 52.2238 463.92 52.6429L464.178 51.6769C462.527 51.2354 460.791 51 459 51H453.708ZM479 81.0909H478V91.1818H479V81.0909ZM479 96.2273H478V106.318H479V96.2273ZM479 111.364H478V121.455H479V111.364ZM479 126.5H478V136.591H479V126.5ZM479 141.636H478V151.727H479V141.636ZM479 156.773H478V166.864H479V156.773ZM479 171.909H478V182H479V171.909ZM479 187.045H478V197.136H479V187.045ZM479 202.182H478V212.273H479V202.182ZM479 217.318H478V227.409H479V217.318ZM479 232.455H478V242.545H479V232.455ZM479 247.591H478V257.682H479V247.591ZM479 262.727H478V272.818H479V262.727ZM479 277.864H478V287.955H479V277.864ZM479 293H478V303.091H479V293ZM479 308.136H478V318.227H479V308.136ZM479 323.273H478V333.364H479V323.273ZM479 338.409H478V348.5H479V338.409ZM479 353.545H478V363.636H479V353.545ZM479 368.682H478V378.773H479V368.682ZM479 383.818H478V393.909H479V383.818ZM479 398.955H478V404C478 405.703 477.776 407.352 477.357 408.92L478.323 409.178C478.765 407.527 479 405.791 479 404V398.955ZM448.417 424V423H437.833V424H448.417ZM432.542 424V423H421.958V424H432.542ZM416.667 424V423H406.083V424H416.667ZM400.792 424V423H390.208V424H400.792ZM384.917 424V423H374.333V424H384.917ZM369.042 424V423H358.458V424H369.042ZM353.167 424V423H342.583V424H353.167Z"/>
<path fill-rule="evenodd" clip-rule="evenodd" d="M203.5 225C226.951 225 246 205.546 246 181.5C246 157.454 226.951 138 203.5 138C180.049 138 161 157.454 161 181.5C161 205.546 180.049 225 203.5 225ZM203.5 226C227.524 226 247 206.077 247 181.5C247 156.923 227.524 137 203.5 137C179.476 137 160 156.923 160 181.5C160 206.077 179.476 226 203.5 226Z"/>
<path fill-rule="evenodd" clip-rule="evenodd" d="M246.982 378.976L246.933 377.977C246.624 377.992 246.313 378 246 378H244.988V379H246C246.329 379 246.656 378.992 246.982 378.976ZM248.936 378.786L248.79 377.797C249.41 377.706 250.02 377.584 250.619 377.435L250.861 378.405C250.231 378.563 249.588 378.69 248.936 378.786ZM252.74 377.836L252.403 376.894C252.991 376.684 253.565 376.445 254.125 376.18L254.553 377.084C253.964 377.363 253.359 377.614 252.74 377.836ZM256.283 376.157L255.768 375.3C256.303 374.979 256.82 374.633 257.318 374.263L257.914 375.065C257.39 375.455 256.846 375.82 256.283 376.157ZM259.431 373.819L258.759 373.078C259.22 372.661 259.661 372.22 260.078 371.759L260.819 372.431C260.379 372.916 259.916 373.379 259.431 373.819ZM262.065 370.915L261.263 370.318C261.633 369.82 261.979 369.303 262.3 368.768L263.157 369.283C262.82 369.846 262.455 370.39 262.065 370.915ZM264.084 367.553L263.18 367.125C263.445 366.565 263.684 365.991 263.894 365.403L264.836 365.74C264.614 366.359 264.363 366.964 264.084 367.553ZM265.405 363.861L264.435 363.619C264.584 363.02 264.706 362.41 264.797 361.79L265.786 361.936C265.69 362.588 265.563 363.231 265.405 363.861ZM265.976 359.982L264.977 359.933C264.992 359.624 265 359.313 265 359V358.167H266V359C266 359.329 265.992 359.656 265.976 359.982ZM266 356.5H265V354.833H266V356.5ZM266 353.167H265V351.5H266V353.167ZM266 349.833H265V349C265 348.687 264.992 348.376 264.977 348.067L265.976 348.018C265.992 348.344 266 348.671 266 349V349.833ZM265.786 346.064L264.797 346.21C264.706 345.59 264.584 344.98 264.435 344.381L265.405 344.139C265.563 344.769 265.69 345.412 265.786 346.064ZM264.836 342.26L263.894 342.597C263.684 342.009 263.445 341.435 263.18 340.875L264.084 340.447C264.363 341.036 264.614 341.641 264.836 342.26ZM263.157 338.717L262.3 339.232C261.979 338.697 261.633 338.18 261.263 337.682L262.065 337.085C262.455 337.61 262.82 338.154 263.157 338.717ZM260.819 335.569L260.078 336.241C259.661 335.78 259.22 335.339 258.759 334.922L259.431 334.181C259.916 334.621 260.379 335.084 260.819 335.569ZM257.915 332.935L257.318 333.737C256.82 333.367 256.303 333.021 255.768 332.7L256.283 331.843C256.846 332.18 257.39 332.545 257.915 332.935ZM254.553 330.916L254.125 331.82C253.565 331.555 252.991 331.316 252.403 331.106L252.74 330.164C253.359 330.386 253.964 330.637 254.553 330.916ZM250.861 329.595L250.619 330.565C250.02 330.416 249.41 330.294 248.79 330.203L248.936 329.214C249.588 329.31 250.231 329.437 250.861 329.595ZM246.982 329.024C246.656 329.008 246.329 329 246 329H244.988V330H246C246.313 330 246.624 330.008 246.933 330.023L246.982 329.024ZM242.964 329V330H240.94V329H242.964ZM238.917 329V330H236.893V329H238.917ZM234.869 329V330H232.845V329H234.869ZM230.821 329V330H228.798V329H230.821ZM226.774 329V330H224.75V329H226.774ZM222.726 329V330H220.702V329H222.726ZM218.679 329V330H216.655V329H218.679ZM214.631 329V330H212.607V329H214.631ZM210.583 329V330H208.56V329H210.583ZM206.536 329V330H204.512V329H206.536ZM202.488 329V330H200.464V329H202.488ZM198.44 329V330H196.417V329H198.44ZM194.393 329V330H192.369V329H194.393ZM190.345 329V330H188.321V329H190.345ZM186.298 329V330H184.274V329H186.298ZM182.25 329V330H180.226V329H182.25ZM178.202 329V330H176.179V329H178.202ZM174.155 329V330H172.131V329H174.155ZM170.107 329V330H168.083V329H170.107ZM166.059 329V330H164.036V329H166.059ZM162.012 329V330H161C160.687 330 160.376 330.008 160.067 330.023L160.018 329.024C160.344 329.008 160.671 329 161 329H162.012ZM158.064 329.214L158.21 330.203C157.59 330.294 156.98 330.416 156.381 330.565L156.139 329.595C156.769 329.437 157.412 329.31 158.064 329.214ZM154.26 330.164L154.597 331.106C154.009 331.316 153.435 331.555 152.875 331.82L152.447 330.916C153.036 330.637 153.641 330.386 154.26 330.164ZM150.717 331.843L151.232 332.7C150.697 333.021 150.18 333.367 149.682 333.737L149.086 332.935C149.61 332.545 150.154 332.18 150.717 331.843ZM147.569 334.181L148.241 334.922C147.78 335.339 147.339 335.78 146.922 336.241L146.181 335.569C146.621 335.084 147.084 334.621 147.569 334.181ZM144.935 337.085L145.737 337.682C145.367 338.18 145.021 338.697 144.7 339.232L143.843 338.717C144.18 338.154 144.545 337.61 144.935 337.085ZM142.916 340.447L143.82 340.875C143.555 341.435 143.316 342.009 143.106 342.597L142.164 342.26C142.386 341.641 142.637 341.036 142.916 340.447ZM141.595 344.139L142.565 344.381C142.416 344.98 142.294 345.59 142.203 346.21L141.214 346.064C141.31 345.412 141.437 344.769 141.595 344.139ZM141.024 348.018L142.023 348.067C142.008 348.376 142 348.687 142 349V349.833H141V349C141 348.671 141.008 348.344 141.024 348.018ZM141 351.5H142V353.167H141V351.5ZM141 354.833H142V356.5H141V354.833ZM141 358.167H142V359C142 359.313 142.008 359.624 142.023 359.933L141.024 359.982C141.008 359.656 141 359.329 141 359V358.167ZM141.214 361.936L142.203 361.79C142.294 362.41 142.416 363.02 142.565 363.619L141.595 363.861C141.437 363.231 141.31 362.588 141.214 361.936ZM142.164 365.74L143.106 365.403C143.316 365.991 143.555 366.565 143.82 367.125L142.916 367.553C142.637 366.964 142.386 366.359 142.164 365.74ZM143.843 369.283L144.7 368.768C145.021 369.303 145.367 369.82 145.737 370.318L144.935 370.915C144.545 370.39 144.18 369.846 143.843 369.283ZM146.181 372.431L146.922 371.759C147.339 372.22 147.78 372.661 148.241 373.078L147.569 373.819C147.084 373.379 146.621 372.916 146.181 372.431ZM149.086 375.065L149.682 374.263C150.18 374.633 150.697 374.979 151.232 375.3L150.717 376.157C150.154 375.82 149.61 375.455 149.086 375.065ZM152.447 377.084L152.875 376.18C153.435 376.445 154.009 376.684 154.597 376.894L154.26 377.836C153.641 377.614 153.036 377.363 152.447 377.084ZM156.139 378.405L156.381 377.435C156.98 377.584 157.59 377.706 158.21 377.797L158.064 378.786C157.412 378.69 156.769 378.563 156.139 378.405ZM160.018 378.976L160.067 377.977C160.376 377.992 160.687 378 161 378H162.012V379H161C160.671 379 160.344 378.992 160.018 378.976ZM164.036 379V378H166.06V379H164.036ZM168.083 379V378H170.107V379H168.083ZM172.131 379V378H174.155V379H172.131ZM176.179 379V378H178.202V379H176.179ZM180.226 379V378H182.25V379H180.226ZM184.274 379V378H186.298V379H184.274ZM188.321 379V378H190.345V379H188.321ZM192.369 379V378H194.393V379H192.369ZM196.417 379V378H198.44V379H196.417ZM200.464 379V378H202.488V379H200.464ZM204.512 379V378H206.536V379H204.512ZM208.56 379V378H210.583V379H208.56ZM212.607 379V378H214.631V379H212.607ZM216.655 379V378H218.679V379H216.655ZM220.702 379V378H222.726V379H220.702ZM224.75 379V378H226.774V379H224.75ZM228.798 379V378H230.821V379H228.798ZM232.845 379V378H234.869V379H232.845ZM236.893 379V378H238.917V379H236.893ZM240.941 379V378H242.964V379H240.941Z"/>
<path fill-rule="evenodd" clip-rule="evenodd" d="M204 144L204 182L203 182L203 144L204 144Z"/>
<path fill-rule="evenodd" clip-rule="evenodd" d="M185 196.6L203 181L203.655 181.756L185.655 197.356L185 196.6Z"/>
<path fill-rule="evenodd" clip-rule="evenodd" d="M378.982 101.454L377.983 101.416C377.994 101.112 378 100.807 378 100.5C378 100.193 377.994 99.8878 377.983 99.5839L378.982 99.5465C378.994 99.8628 379 100.181 379 100.5C379 100.819 378.994 101.137 378.982 101.454ZM378.839 97.6475L377.845 97.7604C377.776 97.1506 377.684 96.5481 377.57 95.9536L378.552 95.7653C378.671 96.3847 378.767 97.0124 378.839 97.6475ZM378.122 93.9099L377.157 94.1731C376.996 93.5827 376.813 93.0017 376.609 92.4311L377.55 92.0942C377.763 92.689 377.954 93.2945 378.122 93.9099ZM376.84 90.3267L375.927 90.7353C375.677 90.1775 375.407 89.6315 375.116 89.0982L375.995 88.6202C376.297 89.1761 376.579 89.7453 376.84 90.3267ZM375.021 86.9839L374.182 87.5284C373.849 87.0164 373.498 86.5185 373.128 86.0357L373.922 85.4279C374.308 85.9312 374.674 86.4502 375.021 86.9839ZM372.707 83.9619L371.963 84.6295C371.556 84.1757 371.132 83.7382 370.691 83.3183L371.382 82.5947C371.841 83.0326 372.283 83.4887 372.707 83.9619ZM369.953 81.3353L369.322 82.1108C368.85 81.7265 368.363 81.3609 367.862 81.015L368.43 80.1921C368.953 80.553 369.461 80.9345 369.953 81.3353ZM366.821 79.1732L366.32 80.0387C365.795 79.7344 365.256 79.4508 364.706 79.1888L365.136 78.2859C365.711 78.5595 366.273 78.8557 366.821 79.1732ZM363.385 77.537L363.03 78.4715C362.464 78.2561 361.887 78.0628 361.301 77.8926L361.58 76.9323C362.192 77.11 362.794 77.3119 363.385 77.537ZM359.731 76.4759L359.531 77.4557C358.939 77.3349 358.339 77.2373 357.732 77.1639L357.852 76.1712C358.486 76.2478 359.113 76.3497 359.731 76.4759ZM355.953 76.019L355.914 77.0182C355.611 77.0061 355.306 77 355 77C354.694 77 354.389 77.0061 354.086 77.0182L354.047 76.019C354.363 76.0064 354.681 76 355 76C355.319 76 355.637 76.0064 355.953 76.019ZM352.148 76.1712L352.268 77.1639C351.661 77.2373 351.061 77.3349 350.469 77.4557L350.269 76.4759C350.887 76.3497 351.514 76.2478 352.148 76.1712ZM348.42 76.9323L348.699 77.8926C348.113 78.0628 347.536 78.2561 346.97 78.4715L346.615 77.537C347.206 77.3119 347.808 77.11 348.42 76.9323ZM344.864 78.2859L345.294 79.1887C344.744 79.4508 344.205 79.7344 343.68 80.0387L343.179 79.1732C343.727 78.8557 344.289 78.5595 344.864 78.2859ZM341.57 80.1921L342.138 81.015C341.637 81.3609 341.15 81.7265 340.678 82.1108L340.047 81.3353C340.539 80.9345 341.047 80.553 341.57 80.1921ZM338.618 82.5947L339.309 83.3183C338.868 83.7382 338.444 84.1757 338.037 84.6295L337.293 83.9619C337.717 83.4887 338.159 83.0326 338.618 82.5947ZM336.078 85.4279L336.872 86.0357C336.502 86.5185 336.151 87.0164 335.818 87.5284L334.979 86.9839C335.326 86.4502 335.692 85.9312 336.078 85.4279ZM334.005 88.6202L334.884 89.0982C334.593 89.6315 334.323 90.1775 334.073 90.7353L333.16 90.3267C333.421 89.7453 333.703 89.1761 334.005 88.6202ZM332.45 92.0942L333.391 92.4311C333.187 93.0017 333.004 93.5827 332.843 94.1731L331.878 93.9098C332.046 93.2945 332.237 92.689 332.45 92.0942ZM331.448 95.7653L332.43 95.9536C332.316 96.5481 332.224 97.1506 332.155 97.7604L331.161 97.6475C331.233 97.0124 331.329 96.3847 331.448 95.7653ZM331.018 99.5465C331.006 99.8628 331 100.181 331 100.5C331 100.819 331.006 101.137 331.018 101.454L332.017 101.416C332.006 101.112 332 100.807 332 100.5C332 100.193 332.006 99.8878 332.017 99.5839L331.018 99.5465ZM331.161 103.352L332.155 103.24C332.224 103.849 332.316 104.452 332.43 105.046L331.448 105.235C331.329 104.615 331.233 103.988 331.161 103.352ZM331.878 107.09L332.843 106.827C333.004 107.417 333.187 107.998 333.391 108.569L332.45 108.906C332.237 108.311 332.046 107.705 331.878 107.09ZM333.16 110.673L334.073 110.265C334.323 110.822 334.593 111.369 334.884 111.902L334.005 112.38C333.703 111.824 333.421 111.255 333.16 110.673ZM334.979 114.016L335.818 113.472C336.151 113.984 336.502 114.482 336.872 114.964L336.078 115.572C335.692 115.069 335.326 114.55 334.979 114.016ZM337.293 117.038L338.037 116.37C338.444 116.824 338.868 117.262 339.309 117.682L338.618 118.405C338.159 117.967 337.717 117.511 337.293 117.038ZM340.047 119.665L340.678 118.889C341.15 119.273 341.637 119.639 342.138 119.985L341.57 120.808C341.047 120.447 340.539 120.066 340.047 119.665ZM343.179 121.827L343.68 120.961C344.205 121.266 344.744 121.549 345.294 121.811L344.864 122.714C344.289 122.44 343.727 122.144 343.179 121.827ZM346.615 123.463L346.97 122.528C347.536 122.744 348.113 122.937 348.699 123.107L348.42 124.068C347.808 123.89 347.206 123.688 346.615 123.463ZM350.269 124.524C350.887 124.65 351.514 124.752 352.148 124.829L352.268 123.836C351.661 123.763 351.061 123.665 350.469 123.544L350.269 124.524ZM354.047 124.981C354.363 124.994 354.681 125 355 125C355.319 125 355.637 124.994 355.953 124.981L355.914 123.982C355.611 123.994 355.306 124 355 124C354.694 124 354.389 123.994 354.086 123.982L354.047 124.981ZM357.852 124.829C358.486 124.752 359.113 124.65 359.731 124.524L359.531 123.544C358.939 123.665 358.339 123.763 357.732 123.836L357.852 124.829ZM361.58 124.068C362.192 123.89 362.794 123.688 363.385 123.463L363.03 122.528C362.464 122.744 361.887 122.937 361.301 123.107L361.58 124.068ZM365.136 122.714L364.706 121.811C365.256 121.549 365.795 121.266 366.32 120.961L366.821 121.827C366.273 122.144 365.711 122.44 365.136 122.714ZM368.43 120.808L367.862 119.985C368.363 119.639 368.85 119.273 369.322 118.889L369.953 119.665C369.461 120.066 368.953 120.447 368.43 120.808ZM371.382 118.405L370.691 117.682C371.132 117.262 371.556 116.824 371.963 116.37L372.707 117.038C372.283 117.511 371.841 117.967 371.382 118.405ZM373.922 115.572L373.128 114.964C373.498 114.482 373.849 113.984 374.182 113.472L375.021 114.016C374.674 114.55 374.308 115.069 373.922 115.572ZM375.995 112.38L375.116 111.902C375.407 111.369 375.677 110.822 375.927 110.265L376.84 110.673C376.579 111.255 376.297 111.824 375.995 112.38ZM377.55 108.906L376.609 108.569C376.813 107.998 376.996 107.417 377.157 106.827L378.122 107.09C377.954 107.705 377.763 108.311 377.55 108.906ZM378.552 105.235L377.57 105.046C377.684 104.452 377.776 103.849 377.845 103.24L378.839 103.352C378.767 103.988 378.671 104.615 378.552 105.235Z"/>
<path fill-rule="evenodd" clip-rule="evenodd" d="M383.868 76.8387L354.536 108.699L341.169 96.8745L341.831 96.1255L354.464 107.301L383.132 76.1613L383.868 76.8387Z"/>
<path fill-rule="evenodd" clip-rule="evenodd" d="M378.982 176.454L377.983 176.416C377.994 176.112 378 175.807 378 175.5C378 175.193 377.994 174.888 377.983 174.584L378.982 174.546C378.994 174.863 379 175.181 379 175.5C379 175.819 378.994 176.137 378.982 176.454ZM378.839 172.648L377.845 172.76C377.776 172.151 377.684 171.548 377.57 170.954L378.552 170.765C378.671 171.385 378.767 172.012 378.839 172.648ZM378.122 168.91L377.157 169.173C376.996 168.583 376.813 168.002 376.609 167.431L377.55 167.094C377.763 167.689 377.954 168.295 378.122 168.91ZM376.84 165.327L375.927 165.735C375.677 165.178 375.407 164.631 375.116 164.098L375.995 163.62C376.297 164.176 376.579 164.745 376.84 165.327ZM375.021 161.984L374.182 162.528C373.849 162.016 373.498 161.518 373.128 161.036L373.922 160.428C374.308 160.931 374.674 161.45 375.021 161.984ZM372.707 158.962L371.963 159.63C371.556 159.176 371.132 158.738 370.691 158.318L371.382 157.595C371.841 158.033 372.283 158.489 372.707 158.962ZM369.953 156.335L369.322 157.111C368.85 156.727 368.363 156.361 367.862 156.015L368.43 155.192C368.953 155.553 369.461 155.934 369.953 156.335ZM366.821 154.173L366.32 155.039C365.795 154.734 365.256 154.451 364.706 154.189L365.136 153.286C365.711 153.56 366.273 153.856 366.821 154.173ZM363.385 152.537L363.03 153.472C362.464 153.256 361.887 153.063 361.301 152.893L361.58 151.932C362.192 152.11 362.794 152.312 363.385 152.537ZM359.731 151.476L359.531 152.456C358.939 152.335 358.339 152.237 357.732 152.164L357.852 151.171C358.486 151.248 359.113 151.35 359.731 151.476ZM355.953 151.019L355.914 152.018C355.611 152.006 355.306 152 355 152C354.694 152 354.389 152.006 354.086 152.018L354.047 151.019C354.363 151.006 354.681 151 355 151C355.319 151 355.637 151.006 355.953 151.019ZM352.148 151.171L352.268 152.164C351.661 152.237 351.061 152.335 350.469 152.456L350.269 151.476C350.887 151.35 351.514 151.248 352.148 151.171ZM348.42 151.932L348.699 152.893C348.113 153.063 347.536 153.256 346.97 153.472L346.615 152.537C347.206 152.312 347.808 152.11 348.42 151.932ZM344.864 153.286L345.294 154.189C344.744 154.451 344.205 154.734 343.68 155.039L343.179 154.173C343.727 153.856 344.289 153.56 344.864 153.286ZM341.57 155.192L342.138 156.015C341.637 156.361 341.15 156.727 340.678 157.111L340.047 156.335C340.539 155.934 341.047 155.553 341.57 155.192ZM338.618 157.595L339.309 158.318C338.868 158.738 338.444 159.176 338.037 159.63L337.293 158.962C337.717 158.489 338.159 158.033 338.618 157.595ZM336.078 160.428L336.872 161.036C336.502 161.518 336.151 162.016 335.818 162.528L334.979 161.984C335.326 161.45 335.692 160.931 336.078 160.428ZM334.005 163.62L334.884 164.098C334.593 164.631 334.323 165.178 334.073 165.735L333.16 165.327C333.421 164.745 333.703 164.176 334.005 163.62ZM332.45 167.094L333.391 167.431C333.187 168.002 333.004 168.583 332.843 169.173L331.878 168.91C332.046 168.295 332.237 167.689 332.45 167.094ZM331.448 170.765L332.43 170.954C332.316 171.548 332.224 172.151 332.155 172.76L331.161 172.648C331.233 172.012 331.329 171.385 331.448 170.765ZM331.018 174.546C331.006 174.863 331 175.181 331 175.5C331 175.819 331.006 176.137 331.018 176.454L332.017 176.416C332.006 176.112 332 175.807 332 175.5C332 175.193 332.006 174.888 332.017 174.584L331.018 174.546ZM331.161 178.352L332.155 178.24C332.224 178.849 332.316 179.452 332.43 180.046L331.448 180.235C331.329 179.615 331.233 178.988 331.161 178.352ZM331.878 182.09L332.843 181.827C333.004 182.417 333.187 182.998 333.391 183.569L332.45 183.906C332.237 183.311 332.046 182.705 331.878 182.09ZM333.16 185.673L334.073 185.265C334.323 185.822 334.593 186.369 334.884 186.902L334.005 187.38C333.703 186.824 333.421 186.255 333.16 185.673ZM334.979 189.016L335.818 188.472C336.151 188.984 336.502 189.482 336.872 189.964L336.078 190.572C335.692 190.069 335.326 189.55 334.979 189.016ZM337.293 192.038L338.037 191.37C338.444 191.824 338.868 192.262 339.309 192.682L338.618 193.405C338.159 192.967 337.717 192.511 337.293 192.038ZM340.047 194.665L340.678 193.889C341.15 194.273 341.637 194.639 342.138 194.985L341.57 195.808C341.047 195.447 340.539 195.066 340.047 194.665ZM343.179 196.827L343.68 195.961C344.205 196.266 344.744 196.549 345.294 196.811L344.864 197.714C344.289 197.44 343.727 197.144 343.179 196.827ZM346.615 198.463L346.97 197.528C347.536 197.744 348.113 197.937 348.699 198.107L348.42 199.068C347.808 198.89 347.206 198.688 346.615 198.463ZM350.269 199.524C350.887 199.65 351.514 199.752 352.148 199.829L352.268 198.836C351.661 198.763 351.061 198.665 350.469 198.544L350.269 199.524ZM354.047 199.981C354.363 199.994 354.681 200 355 200C355.319 200 355.637 199.994 355.953 199.981L355.914 198.982C355.611 198.994 355.306 199 355 199C354.694 199 354.389 198.994 354.086 198.982L354.047 199.981ZM357.852 199.829C358.486 199.752 359.113 199.65 359.731 199.524L359.531 198.544C358.939 198.665 358.339 198.763 357.732 198.836L357.852 199.829ZM361.58 199.068C362.192 198.89 362.794 198.688 363.385 198.463L363.03 197.528C362.464 197.744 361.887 197.937 361.301 198.107L361.58 199.068ZM365.136 197.714L364.706 196.811C365.256 196.549 365.795 196.266 366.32 195.961L366.821 196.827C366.273 197.144 365.711 197.44 365.136 197.714ZM368.43 195.808L367.862 194.985C368.363 194.639 368.85 194.273 369.322 193.889L369.953 194.665C369.461 195.066 368.953 195.447 368.43 195.808ZM371.382 193.405L370.691 192.682C371.132 192.262 371.556 191.824 371.963 191.37L372.707 192.038C372.283 192.511 371.841 192.967 371.382 193.405ZM373.922 190.572L373.128 189.964C373.498 189.482 373.849 188.984 374.182 188.472L375.021 189.016C374.674 189.55 374.308 190.069 373.922 190.572ZM375.995 187.38L375.116 186.902C375.407 186.369 375.677 185.822 375.927 185.265L376.84 185.673C376.579 186.255 376.297 186.824 375.995 187.38ZM377.55 183.906L376.609 183.569C376.813 182.998 376.996 182.417 377.157 181.827L378.122 182.09C377.954 182.705 377.763 183.311 377.55 183.906ZM378.552 180.235L377.57 180.046C377.684 179.452 377.776 178.849 377.845 178.24L378.839 178.352C378.767 178.988 378.671 179.615 378.552 180.235Z"/>
<path fill-rule="evenodd" clip-rule="evenodd" d="M383.868 151.839L354.536 183.699L341.169 171.875L341.831 171.126L354.464 182.301L383.132 151.161L383.868 151.839Z"/>
<path fill-rule="evenodd" clip-rule="evenodd" d="M378.982 251.454L377.983 251.416C377.994 251.112 378 250.807 378 250.5C378 250.193 377.994 249.888 377.983 249.584L378.982 249.546C378.994 249.863 379 250.181 379 250.5C379 250.819 378.994 251.137 378.982 251.454ZM378.839 247.648L377.845 247.76C377.776 247.151 377.684 246.548 377.57 245.954L378.552 245.765C378.671 246.385 378.767 247.012 378.839 247.648ZM378.122 243.91L377.157 244.173C376.996 243.583 376.813 243.002 376.609 242.431L377.55 242.094C377.763 242.689 377.954 243.295 378.122 243.91ZM376.84 240.327L375.927 240.735C375.677 240.178 375.407 239.631 375.116 239.098L375.995 238.62C376.297 239.176 376.579 239.745 376.84 240.327ZM375.021 236.984L374.182 237.528C373.849 237.016 373.498 236.518 373.128 236.036L373.922 235.428C374.308 235.931 374.674 236.45 375.021 236.984ZM372.707 233.962L371.963 234.63C371.556 234.176 371.132 233.738 370.691 233.318L371.382 232.595C371.841 233.033 372.283 233.489 372.707 233.962ZM369.953 231.335L369.322 232.111C368.85 231.727 368.363 231.361 367.862 231.015L368.43 230.192C368.953 230.553 369.461 230.934 369.953 231.335ZM366.821 229.173L366.32 230.039C365.795 229.734 365.256 229.451 364.706 229.189L365.136 228.286C365.711 228.56 366.273 228.856 366.821 229.173ZM363.385 227.537L363.03 228.472C362.464 228.256 361.887 228.063 361.301 227.893L361.58 226.932C362.192 227.11 362.794 227.312 363.385 227.537ZM359.731 226.476L359.531 227.456C358.939 227.335 358.339 227.237 357.732 227.164L357.852 226.171C358.486 226.248 359.113 226.35 359.731 226.476ZM355.953 226.019L355.914 227.018C355.611 227.006 355.306 227 355 227C354.694 227 354.389 227.006 354.086 227.018L354.047 226.019C354.363 226.006 354.681 226 355 226C355.319 226 355.637 226.006 355.953 226.019ZM352.148 226.171L352.268 227.164C351.661 227.237 351.061 227.335 350.469 227.456L350.269 226.476C350.887 226.35 351.514 226.248 352.148 226.171ZM348.42 226.932L348.699 227.893C348.113 228.063 347.536 228.256 346.97 228.472L346.615 227.537C347.206 227.312 347.808 227.11 348.42 226.932ZM344.864 228.286L345.294 229.189C344.744 229.451 344.205 229.734 343.68 230.039L343.179 229.173C343.727 228.856 344.289 228.56 344.864 228.286ZM341.57 230.192L342.138 231.015C341.637 231.361 341.15 231.727 340.678 232.111L340.047 231.335C340.539 230.934 341.047 230.553 341.57 230.192ZM338.618 232.595L339.309 233.318C338.868 233.738 338.444 234.176 338.037 234.63L337.293 233.962C337.717 233.489 338.159 233.033 338.618 232.595ZM336.078 235.428L336.872 236.036C336.502 236.518 336.151 237.016 335.818 237.528L334.979 236.984C335.326 236.45 335.692 235.931 336.078 235.428ZM334.005 238.62L334.884 239.098C334.593 239.631 334.323 240.178 334.073 240.735L333.16 240.327C333.421 239.745 333.703 239.176 334.005 238.62ZM332.45 242.094L333.391 242.431C333.187 243.002 333.004 243.583 332.843 244.173L331.878 243.91C332.046 243.295 332.237 242.689 332.45 242.094ZM331.448 245.765L332.43 245.954C332.316 246.548 332.224 247.151 332.155 247.76L331.161 247.648C331.233 247.012 331.329 246.385 331.448 245.765ZM331.018 249.546C331.006 249.863 331 250.181 331 250.5C331 250.819 331.006 251.137 331.018 251.454L332.017 251.416C332.006 251.112 332 250.807 332 250.5C332 250.193 332.006 249.888 332.017 249.584L331.018 249.546ZM331.161 253.352L332.155 253.24C332.224 253.849 332.316 254.452 332.43 255.046L331.448 255.235C331.329 254.615 331.233 253.988 331.161 253.352ZM331.878 257.09L332.843 256.827C333.004 257.417 333.187 257.998 333.391 258.569L332.45 258.906C332.237 258.311 332.046 257.705 331.878 257.09ZM333.16 260.673L334.073 260.265C334.323 260.822 334.593 261.369 334.884 261.902L334.005 262.38C333.703 261.824 333.421 261.255 333.16 260.673ZM334.979 264.016L335.818 263.472C336.151 263.984 336.502 264.482 336.872 264.964L336.078 265.572C335.692 265.069 335.326 264.55 334.979 264.016ZM337.293 267.038L338.037 266.37C338.444 266.824 338.868 267.262 339.309 267.682L338.618 268.405C338.159 267.967 337.717 267.511 337.293 267.038ZM340.047 269.665L340.678 268.889C341.15 269.273 341.637 269.639 342.138 269.985L341.57 270.808C341.047 270.447 340.539 270.066 340.047 269.665ZM343.179 271.827L343.68 270.961C344.205 271.266 344.744 271.549 345.294 271.811L344.864 272.714C344.289 272.44 343.727 272.144 343.179 271.827ZM346.615 273.463L346.97 272.528C347.536 272.744 348.113 272.937 348.699 273.107L348.42 274.068C347.808 273.89 347.206 273.688 346.615 273.463ZM350.269 274.524C350.887 274.65 351.514 274.752 352.148 274.829L352.268 273.836C351.661 273.763 351.061 273.665 350.469 273.544L350.269 274.524ZM354.047 274.981C354.363 274.994 354.681 275 355 275C355.319 275 355.637 274.994 355.953 274.981L355.914 273.982C355.611 273.994 355.306 274 355 274C354.694 274 354.389 273.994 354.086 273.982L354.047 274.981ZM357.852 274.829C358.486 274.752 359.113 274.65 359.731 274.524L359.531 273.544C358.939 273.665 358.339 273.763 357.732 273.836L357.852 274.829ZM361.58 274.068C362.192 273.89 362.794 273.688 363.385 273.463L363.03 272.528C362.464 272.744 361.887 272.937 361.301 273.107L361.58 274.068ZM365.136 272.714L364.706 271.811C365.256 271.549 365.795 271.266 366.32 270.961L366.821 271.827C366.273 272.144 365.711 272.44 365.136 272.714ZM368.43 270.808L367.862 269.985C368.363 269.639 368.85 269.273 369.322 268.889L369.953 269.665C369.461 270.066 368.953 270.447 368.43 270.808ZM371.382 268.405L370.691 267.682C371.132 267.262 371.556 266.824 371.963 266.37L372.707 267.038C372.283 267.511 371.841 267.967 371.382 268.405ZM373.922 265.572L373.128 264.964C373.498 264.482 373.849 263.984 374.182 263.472L375.021 264.016C374.674 264.55 374.308 265.069 373.922 265.572ZM375.995 262.38L375.116 261.902C375.407 261.369 375.677 260.822 375.927 260.265L376.84 260.673C376.579 261.255 376.297 261.824 375.995 262.38ZM377.55 258.906L376.609 258.569C376.813 257.998 376.996 257.417 377.157 256.827L378.122 257.09C377.954 257.705 377.763 258.311 377.55 258.906ZM378.552 255.235L377.57 255.046C377.684 254.452 377.776 253.849 377.845 253.24L378.839 253.352C378.767 253.988 378.671 254.615 378.552 255.235Z"/>
<path fill-rule="evenodd" clip-rule="evenodd" d="M383.868 226.839L354.536 258.699L341.169 246.875L341.831 246.126L354.464 257.301L383.132 226.161L383.868 226.839Z"/>
<path fill-rule="evenodd" clip-rule="evenodd" d="M183 354L154.5 337.546L154.5 370.454L183 354ZM181 354L155.5 339.278L155.5 368.722L181 354Z"/>
<path fill-rule="evenodd" clip-rule="evenodd" d="M441 411C453.15 411 463 401.15 463 389C463 376.85 453.15 367 441 367C428.85 367 419 376.85 419 389C419 401.15 428.85 411 441 411ZM441 412C453.703 412 464 401.703 464 389C464 376.297 453.703 366 441 366C428.297 366 418 376.297 418 389C418 401.703 428.297 412 441 412Z"/>
<path fill-rule="evenodd" clip-rule="evenodd" d="M440.465 399.163L440.465 377.767L441.465 377.767L441.465 399.163L440.465 399.163Z"/>
<path fill-rule="evenodd" clip-rule="evenodd" d="M429.767 388.465L451.163 388.465L451.163 389.465L429.767 389.465L429.767 388.465Z"/>
</svg>
