<svg id="bg" viewBox="0 0 600 500" xmlns="http://www.w3.org/2000/svg">
<path fill-rule="evenodd" clip-rule="evenodd" d="M476 87H102C91.5066 87 83 95.5066 83 106V166C83 176.493 91.5066 185 102 185H476C486.493 185 495 176.493 495 166V106C495 95.5066 486.493 87 476 87ZM102 86C90.9543 86 82 94.9543 82 106V166C82 177.046 90.9543 186 102 186H476C487.046 186 496 177.046 496 166V106C496 94.9543 487.046 86 476 86H102Z" />
<path fill-rule="evenodd" clip-rule="evenodd" d="M96.8217 300.323L97.08 299.357C98.6481 299.776 100.297 300 102 300H106.987V301H102C100.209 301 98.4734 300.765 96.8217 300.323ZM471.013 301V300H476C477.703 300 479.352 299.776 480.92 299.357L481.178 300.323C479.527 300.765 477.791 301 476 301H471.013ZM486.002 298.323L485.501 297.458C488.384 295.789 490.789 293.384 492.458 290.501L493.323 291.002C491.567 294.037 489.037 296.567 486.002 298.323ZM496 226H495V221C495 219.297 494.776 217.648 494.357 216.08L495.323 215.822C495.765 217.473 496 219.209 496 221V226ZM493.323 210.998L492.458 211.499C490.789 208.616 488.384 206.211 485.501 204.542L486.002 203.677C489.037 205.433 491.567 207.963 493.323 210.998ZM106.987 201H102C100.209 201 98.4734 201.235 96.8217 201.677L97.08 202.643C98.6481 202.224 100.297 202 102 202H106.987V201ZM91.9984 203.677L92.4992 204.542C89.6156 206.211 87.2106 208.616 85.5421 211.499L84.6766 210.998C86.4326 207.963 88.9634 205.433 91.9984 203.677ZM82 276H83V281C83 282.703 83.2238 284.352 83.6429 285.92L82.6769 286.178C82.2354 284.527 82 282.791 82 281V276ZM84.6766 291.002L85.5421 290.501C87.2106 293.384 89.6156 295.789 92.4992 297.458L91.9984 298.323C88.9634 296.567 86.4326 294.037 84.6766 291.002ZM82 271H83V261H82V271ZM82 256H83V246H82V256ZM82 241H83V231H82V241ZM82 226H83V221C83 219.297 83.2238 217.648 83.6429 216.08L82.6769 215.822C82.2354 217.473 82 219.209 82 221V226ZM111.973 201V202H121.947V201H111.973ZM126.933 201V202H136.907V201H126.933ZM141.893 201V202H151.867V201H141.893ZM156.853 201V202H166.827V201H156.853ZM171.813 201V202H181.787V201H171.813ZM186.773 201V202H196.747V201H186.773ZM201.733 201V202H211.707V201H201.733ZM216.693 201V202H226.667V201H216.693ZM231.653 201V202H241.627V201H231.653ZM246.613 201V202H256.587V201H246.613ZM261.573 201V202H271.547V201H261.573ZM276.533 201V202H286.507V201H276.533ZM291.493 201V202H301.467V201H291.493ZM306.453 201V202H316.427V201H306.453ZM321.413 201V202H331.387V201H321.413ZM336.373 201V202H346.347V201H336.373ZM351.333 201V202H361.307V201H351.333ZM366.293 201V202H376.267V201H366.293ZM381.253 201V202H391.227V201H381.253ZM396.213 201V202H406.187V201H396.213ZM411.173 201V202H421.147V201H411.173ZM426.133 201V202H436.107V201H426.133ZM441.093 201V202H451.067V201H441.093ZM456.053 201V202H466.027V201H456.053ZM471.013 201V202H476C477.703 202 479.352 202.224 480.92 202.643L481.178 201.677C479.527 201.235 477.791 201 476 201H471.013ZM496 231H495V241H496V231ZM496 246H495V256H496V246ZM496 261H495V271H496V261ZM496 276H495V281C495 282.703 494.776 284.352 494.357 285.92L495.323 286.178C495.765 284.527 496 282.791 496 281V276ZM466.027 301V300H456.053V301H466.027ZM451.067 301V300H441.093V301H451.067ZM436.107 301V300H426.133V301H436.107ZM421.147 301V300H411.173V301H421.147ZM406.187 301V300H396.213V301H406.187ZM391.227 301V300H381.253V301H391.227ZM376.267 301V300H366.293V301H376.267ZM361.307 301V300H351.333V301H361.307ZM346.347 301V300H336.373V301H346.347ZM331.387 301V300H321.413V301H331.387ZM316.427 301V300H306.453V301H316.427ZM301.467 301V300H291.493V301H301.467ZM286.507 301V300H276.533V301H286.507ZM271.547 301V300H261.573V301H271.547ZM256.587 301V300H246.613V301H256.587ZM241.627 301V300H231.653V301H241.627ZM226.667 301V300H216.693V301H226.667ZM211.707 301V300H201.733V301H211.707ZM196.747 301V300H186.773V301H196.747ZM181.787 301V300H171.813V301H181.787ZM166.827 301V300H156.853V301H166.827ZM151.867 301V300H141.893V301H151.867ZM136.907 301V300H126.933V301H136.907ZM121.947 301V300H111.973V301H121.947Z" />
<path fill-rule="evenodd" clip-rule="evenodd" d="M463.5 102H173.5C168.253 102 164 106.253 164 111.5C164 116.747 168.253 121 173.5 121H463.5C468.747 121 473 116.747 473 111.5C473 106.253 468.747 102 463.5 102ZM173.5 101C167.701 101 163 105.701 163 111.5C163 117.299 167.701 122 173.5 122H463.5C469.299 122 474 117.299 474 111.5C474 105.701 469.299 101 463.5 101H173.5Z" />
<path fill-rule="evenodd" clip-rule="evenodd" d="M365 131H183C172.507 131 164 139.507 164 150V151C164 161.493 172.507 170 183 170H365C375.493 170 384 161.493 384 151V150C384 139.507 375.493 131 365 131ZM183 130C171.954 130 163 138.954 163 150V151C163 162.046 171.954 171 183 171H365C376.046 171 385 162.046 385 151V150C385 138.954 376.046 130 365 130H183Z" />
<path fill-rule="evenodd" clip-rule="evenodd" d="M126.5 143C137.822 143 147 133.822 147 122.5C147 111.178 137.822 102 126.5 102C115.178 102 106 111.178 106 122.5C106 133.822 115.178 143 126.5 143ZM126.5 144C138.374 144 148 134.374 148 122.5C148 110.626 138.374 101 126.5 101C114.626 101 105 110.626 105 122.5C105 134.374 114.626 144 126.5 144Z" />
<path fill-rule="evenodd" clip-rule="evenodd" d="M172.47 236.95L172.567 235.955C172.874 235.985 173.185 236 173.5 236H174.494V237H173.5C173.153 237 172.809 236.983 172.47 236.95ZM462.507 237V236H463.5C463.815 236 464.126 235.985 464.433 235.955L464.53 236.95C464.191 236.983 463.847 237 463.5 237H462.507ZM466.549 236.55L466.259 235.593C466.859 235.412 467.435 235.172 467.978 234.881L468.451 235.762C467.849 236.084 467.213 236.349 466.549 236.55ZM470.161 234.617L469.526 233.844C470.007 233.449 470.449 233.007 470.844 232.526L471.617 233.161C471.18 233.693 470.693 234.18 470.161 234.617ZM472.762 231.451L471.881 230.978C472.172 230.435 472.412 229.859 472.593 229.259L473.55 229.549C473.349 230.213 473.084 230.849 472.762 231.451ZM473.95 227.53L472.955 227.433C472.985 227.126 473 226.815 473 226.5C473 226.185 472.985 225.874 472.955 225.567L473.95 225.47C473.983 225.809 474 226.153 474 226.5C474 226.847 473.983 227.191 473.95 227.53ZM473.55 223.451L472.593 223.741C472.412 223.141 472.172 222.565 471.881 222.022L472.762 221.549C473.084 222.151 473.349 222.787 473.55 223.451ZM471.617 219.839L470.844 220.474C470.449 219.993 470.007 219.551 469.526 219.156L470.161 218.383C470.693 218.82 471.18 219.307 471.617 219.839ZM468.451 217.238L467.978 218.119C467.435 217.828 466.859 217.588 466.259 217.407L466.549 216.45C467.213 216.651 467.849 216.916 468.451 217.238ZM174.493 216H173.5C173.153 216 172.809 216.017 172.47 216.05L172.567 217.045C172.874 217.015 173.185 217 173.5 217H174.493V216ZM170.451 216.45L170.741 217.407C170.141 217.588 169.565 217.828 169.022 218.119L168.549 217.238C169.151 216.916 169.787 216.651 170.451 216.45ZM166.839 218.383L167.474 219.156C166.993 219.551 166.551 219.993 166.156 220.474L165.383 219.839C165.82 219.307 166.307 218.82 166.839 218.383ZM164.238 221.549C163.916 222.151 163.651 222.787 163.45 223.451L164.407 223.741C164.588 223.141 164.828 222.565 165.119 222.022L164.238 221.549ZM163.05 225.47L164.045 225.567C164.015 225.874 164 226.185 164 226.5C164 226.815 164.015 227.126 164.045 227.433L163.05 227.53C163.017 227.191 163 226.847 163 226.5C163 226.153 163.017 225.809 163.05 225.47ZM163.45 229.549L164.407 229.259C164.588 229.859 164.828 230.435 165.119 230.978L164.238 231.451C163.916 230.849 163.651 230.213 163.45 229.549ZM165.383 233.161L166.156 232.526C166.551 233.007 166.993 233.449 167.474 233.844L166.839 234.617C166.307 234.18 165.82 233.693 165.383 233.161ZM170.451 236.55L170.741 235.593C170.141 235.412 169.565 235.172 169.022 234.881L168.549 235.762C169.151 236.084 169.787 236.349 170.451 236.55ZM176.479 216V217H178.466V216H176.479ZM180.452 216V217H182.438V216H180.452ZM184.425 216V217H186.411V216H184.425ZM188.397 216V217H190.384V216H188.397ZM192.37 216V217H194.356V216H192.37ZM196.342 216V217H198.329V216H196.342ZM200.315 216V217H202.301V216H200.315ZM204.288 216V217H206.274V216H204.288ZM208.26 216V217H210.247V216H208.26ZM212.233 216V217H214.219V216H212.233ZM216.205 216V217H218.192V216H216.205ZM220.178 216V217H222.164V216H220.178ZM224.151 216V217H226.137V216H224.151ZM228.123 216V217H230.11V216H228.123ZM232.096 216V217H234.082V216H232.096ZM236.068 216V217H238.055V216H236.068ZM240.041 216V217H242.027V216H240.041ZM244.014 216V217H246V216H244.014ZM247.986 216V217H249.973V216H247.986ZM251.959 216V217H253.945V216H251.959ZM255.931 216V217H257.918V216H255.931ZM259.904 216V217H261.89V216H259.904ZM263.877 216V217H265.863V216H263.877ZM267.849 216V217H269.836V216H267.849ZM271.822 216V217H273.808V216H271.822ZM275.794 216V217H277.781V216H275.794ZM279.767 216V217H281.753V216H279.767ZM283.74 216V217H285.726V216H283.74ZM287.712 216V217H289.699V216H287.712ZM291.685 216V217H293.671V216H291.685ZM295.657 216V217H297.644V216H295.657ZM299.63 216V217H301.616V216H299.63ZM303.603 216V217H305.589V216H303.603ZM307.575 216V217H309.562V216H307.575ZM311.548 216V217H313.534V216H311.548ZM315.52 216V217H317.507V216H315.52ZM319.493 216V217H321.479V216H319.493ZM323.466 216V217H325.452V216H323.466ZM327.438 216V217H329.424V216H327.438ZM331.411 216V217H333.397V216H331.411ZM335.383 216V217H337.37V216H335.383ZM339.356 216V217H341.342V216H339.356ZM343.329 216V217H345.315V216H343.329ZM347.301 216V217H349.287V216H347.301ZM351.274 216V217H353.26V216H351.274ZM355.246 216V217H357.233V216H355.246ZM359.219 216V217H361.205V216H359.219ZM363.192 216V217H365.178V216H363.192ZM367.164 216V217H369.15V216H367.164ZM371.137 216V217H373.123V216H371.137ZM375.109 216V217H377.096V216H375.109ZM379.082 216V217H381.068V216H379.082ZM383.055 216V217H385.041V216H383.055ZM387.027 216V217H389.013V216H387.027ZM391 216V217H392.986V216H391ZM394.972 216V217H396.959V216H394.972ZM398.945 216V217H400.931V216H398.945ZM402.918 216V217H404.904V216H402.918ZM406.89 216V217H408.876V216H406.89ZM410.863 216V217H412.849V216H410.863ZM414.835 216V217H416.822V216H414.835ZM418.808 216V217H420.794V216H418.808ZM422.78 216V217H424.767V216H422.78ZM426.753 216V217H428.739V216H426.753ZM430.726 216V217H432.712V216H430.726ZM434.698 216V217H436.685V216H434.698ZM438.671 216V217H440.657V216H438.671ZM442.643 216V217H444.63V216H442.643ZM446.616 216V217H448.602V216H446.616ZM450.589 216V217H452.575V216H450.589ZM454.561 216V217H456.548V216H454.561ZM458.534 216V217H460.52V216H458.534ZM462.506 216V217H463.5C463.815 217 464.126 217.015 464.433 217.045L464.53 216.05C464.191 216.017 463.847 216 463.5 216H462.506ZM460.521 237V236H458.534V237H460.521ZM456.548 237V236H454.562V237H456.548ZM452.575 237V236H450.589V237H452.575ZM448.603 237V236H446.616V237H448.603ZM444.63 237V236H442.644V237H444.63ZM440.658 237V236H438.671V237H440.658ZM436.685 237V236H434.699V237H436.685ZM432.712 237V236H430.726V237H432.712ZM428.74 237V236H426.753V237H428.74ZM424.767 237V236H422.781V237H424.767ZM420.795 237V236H418.808V237H420.795ZM416.822 237V236H414.836V237H416.822ZM412.849 237V236H410.863V237H412.849ZM408.877 237V236H406.89V237H408.877ZM404.904 237V236H402.918V237H404.904ZM400.932 237V236H398.945V237H400.932ZM396.959 237V236H394.973V237H396.959ZM392.986 237V236H391V237H392.986ZM389.014 237V236H387.027V237H389.014ZM385.041 237V236H383.055V237H385.041ZM381.069 237V236H379.082V237H381.069ZM377.096 237V236H375.11V237H377.096ZM373.123 237V236H371.137V237H373.123ZM369.151 237V236H367.164V237H369.151ZM365.178 237V236H363.192V237H365.178ZM361.206 237V236H359.219V237H361.206ZM357.233 237V236H355.247V237H357.233ZM353.26 237V236H351.274V237H353.26ZM349.288 237V236H347.301V237H349.288ZM345.315 237V236H343.329V237H345.315ZM341.343 237V236H339.356V237H341.343ZM337.37 237V236H335.384V237H337.37ZM333.397 237V236H331.411V237H333.397ZM329.425 237V236H327.438V237H329.425ZM325.452 237V236H323.466V237H325.452ZM321.48 237V236H319.493V237H321.48ZM317.507 237V236H315.521V237H317.507ZM313.534 237V236H311.548V237H313.534ZM309.562 237V236H307.576V237H309.562ZM305.589 237V236H303.603V237H305.589ZM301.617 237V236H299.63V237H301.617ZM297.644 237V236H295.658V237H297.644ZM293.671 237V236H291.685V237H293.671ZM289.699 237V236H287.713V237H289.699ZM285.726 237V236H283.74V237H285.726ZM281.754 237V236H279.767V237H281.754ZM277.781 237V236H275.795V237H277.781ZM273.808 237V236H271.822V237H273.808ZM269.836 237V236H267.85V237H269.836ZM265.863 237V236H263.877V237H265.863ZM261.891 237V236H259.904V237H261.891ZM257.918 237V236H255.932V237H257.918ZM253.945 237V236H251.959V237H253.945ZM249.973 237V236H247.987V237H249.973ZM246 237V236H244.014V237H246ZM242.028 237V236H240.041V237H242.028ZM238.055 237V236H236.069V237H238.055ZM234.082 237V236H232.096V237H234.082ZM230.11 237V236H228.124V237H230.11ZM226.137 237V236H224.151V237H226.137ZM222.165 237V236H220.178V237H222.165ZM218.192 237V236H216.206V237H218.192ZM214.22 237V236H212.233V237H214.22ZM210.247 237V236H208.261V237H210.247ZM206.274 237V236H204.288V237H206.274ZM202.302 237V236H200.315V237H202.302ZM198.329 237V236H196.343V237H198.329ZM194.357 237V236H192.37V237H194.357ZM190.384 237V236H188.398V237H190.384ZM186.411 237V236H184.425V237H186.411ZM182.439 237V236H180.452V237H182.439ZM178.466 237V236H176.48V237H178.466Z" />
<path fill-rule="evenodd" clip-rule="evenodd" d="M182.018 285.976L182.067 284.977C182.376 284.992 182.687 285 183 285H183.989V286H183C182.671 286 182.344 285.992 182.018 285.976ZM180.064 285.786L180.21 284.797C179.59 284.706 178.98 284.584 178.381 284.435L178.139 285.405C178.769 285.563 179.412 285.69 180.064 285.786ZM176.26 284.836L176.597 283.894C176.009 283.684 175.435 283.445 174.875 283.18L174.447 284.084C175.036 284.363 175.641 284.614 176.26 284.836ZM172.717 283.157L173.232 282.3C172.697 281.979 172.18 281.633 171.682 281.263L171.085 282.065C171.61 282.455 172.154 282.82 172.717 283.157ZM169.569 280.819L170.241 280.078C169.78 279.661 169.339 279.22 168.922 278.759L168.181 279.431C168.621 279.916 169.084 280.379 169.569 280.819ZM166.935 277.915L167.737 277.318C167.367 276.82 167.021 276.303 166.7 275.768L165.843 276.283C166.18 276.846 166.545 277.39 166.935 277.915ZM164.916 274.553L165.82 274.125C165.555 273.565 165.316 272.991 165.106 272.403L164.164 272.74C164.386 273.359 164.637 273.964 164.916 274.553ZM163.595 270.861L164.565 270.619C164.416 270.02 164.294 269.41 164.203 268.79L163.214 268.936C163.31 269.588 163.437 270.231 163.595 270.861ZM163.024 266.982L164.023 266.933C164.008 266.624 164 266.313 164 266V265.75H163V266C163 266.329 163.008 266.656 163.024 266.982ZM163 265.25H164V265C164 264.687 164.008 264.376 164.023 264.067L163.024 264.018C163.008 264.344 163 264.671 163 265V265.25ZM163.214 262.064L164.203 262.21C164.294 261.59 164.416 260.98 164.565 260.381L163.595 260.139C163.437 260.769 163.31 261.412 163.214 262.064ZM164.164 258.26L165.106 258.597C165.316 258.009 165.555 257.435 165.82 256.875L164.916 256.447C164.637 257.036 164.386 257.641 164.164 258.26ZM165.843 254.717L166.7 255.232C167.021 254.697 167.367 254.18 167.737 253.682L166.935 253.085C166.545 253.61 166.18 254.154 165.843 254.717ZM168.181 251.569L168.922 252.241C169.339 251.78 169.78 251.339 170.241 250.922L169.569 250.181C169.084 250.621 168.621 251.084 168.181 251.569ZM171.085 248.935L171.682 249.737C172.18 249.367 172.697 249.021 173.232 248.7L172.717 247.843C172.154 248.18 171.61 248.545 171.085 248.935ZM174.447 246.916L174.875 247.82C175.435 247.555 176.009 247.316 176.597 247.106L176.26 246.164C175.641 246.386 175.036 246.637 174.447 246.916ZM178.139 245.595L178.381 246.565C178.98 246.416 179.59 246.294 180.21 246.203L180.064 245.214C179.412 245.31 178.769 245.437 178.139 245.595ZM182.018 245.024C182.344 245.008 182.671 245 183 245H183.989V246H183C182.687 246 182.376 246.008 182.067 246.023L182.018 245.024ZM185.967 245V246H187.946V245H185.967ZM189.924 245V246H191.902V245H189.924ZM193.88 245V246H195.859V245H193.88ZM197.837 245V246H199.815V245H197.837ZM201.793 245V246H203.772V245H201.793ZM205.75 245V246H207.728V245H205.75ZM209.707 245V246H211.685V245H209.707ZM213.663 245V246H215.641V245H213.663ZM217.62 245V246H219.598V245H217.62ZM221.576 245V246H223.554V245H221.576ZM225.533 245V246H227.511V245H225.533ZM229.489 245V246H231.467V245H229.489ZM233.446 245V246H235.424V245H233.446ZM237.402 245V246H239.38V245H237.402ZM241.359 245V246H243.337V245H241.359ZM245.315 245V246H247.293V245H245.315ZM249.272 245V246H251.25V245H249.272ZM253.228 245V246H255.207V245H253.228ZM257.185 245V246H259.163V245H257.185ZM261.141 245V246H263.12V245H261.141ZM265.098 245V246H267.076V245H265.098ZM269.054 245V246H271.033V245H269.054ZM273.011 245V246H274.989V245H273.011ZM276.967 245V246H278.946V245H276.967ZM280.924 245V246H282.902V245H280.924ZM284.88 245V246H286.859V245H284.88ZM288.837 245V246H290.815V245H288.837ZM292.794 245V246H294.772V245H292.794ZM296.75 245V246H298.728V245H296.75ZM300.707 245V246H302.685V245H300.707ZM304.663 245V246H306.641V245H304.663ZM308.62 245V246H310.598V245H308.62ZM312.576 245V246H314.554V245H312.576ZM316.533 245V246H318.511V245H316.533ZM320.489 245V246H322.467V245H320.489ZM324.446 245V246H326.424V245H324.446ZM328.402 245V246H330.38V245H328.402ZM332.359 245V246H334.337V245H332.359ZM336.315 245V246H338.294V245H336.315ZM340.272 245V246H342.25V245H340.272ZM344.228 245V246H346.207V245H344.228ZM348.185 245V246H350.163V245H348.185ZM352.141 245V246H354.12V245H352.141ZM356.098 245V246H358.076V245H356.098ZM360.054 245V246H362.033V245H360.054ZM364.011 245V246H365C365.313 246 365.624 246.008 365.933 246.023L365.982 245.024C365.656 245.008 365.329 245 365 245H364.011ZM367.936 245.214L367.79 246.203C368.41 246.294 369.02 246.416 369.619 246.565L369.861 245.595C369.231 245.437 368.588 245.31 367.936 245.214ZM371.74 246.164L371.403 247.106C371.991 247.316 372.565 247.555 373.125 247.82L373.553 246.916C372.964 246.637 372.359 246.386 371.74 246.164ZM375.283 247.843L374.768 248.7C375.303 249.021 375.82 249.367 376.318 249.737L376.915 248.935C376.39 248.545 375.846 248.18 375.283 247.843ZM378.431 250.181L377.759 250.922C378.22 251.339 378.661 251.78 379.078 252.241L379.819 251.569C379.379 251.084 378.916 250.621 378.431 250.181ZM381.065 253.085L380.263 253.682C380.633 254.18 380.979 254.697 381.3 255.232L382.157 254.717C381.82 254.154 381.455 253.61 381.065 253.085ZM383.084 256.447L382.18 256.875C382.445 257.435 382.684 258.009 382.894 258.597L383.836 258.26C383.614 257.641 383.363 257.036 383.084 256.447ZM384.405 260.139L383.435 260.381C383.584 260.98 383.706 261.59 383.797 262.21L384.786 262.064C384.69 261.412 384.563 260.769 384.405 260.139ZM384.976 264.018L383.977 264.067C383.992 264.376 384 264.687 384 265V265.25H385V265C385 264.671 384.992 264.344 384.976 264.018ZM385 265.75H384V266C384 266.313 383.992 266.624 383.977 266.933L384.976 266.982C384.992 266.656 385 266.329 385 266V265.75ZM384.786 268.936L383.797 268.79C383.706 269.41 383.584 270.02 383.435 270.619L384.405 270.861C384.563 270.231 384.69 269.588 384.786 268.936ZM383.836 272.74L382.894 272.403C382.684 272.991 382.445 273.565 382.18 274.125L383.084 274.553C383.363 273.964 383.614 273.359 383.836 272.74ZM382.157 276.283L381.3 275.768C380.979 276.303 380.633 276.82 380.263 277.318L381.065 277.915C381.455 277.39 381.82 276.846 382.157 276.283ZM379.819 279.431L379.078 278.759C378.661 279.22 378.22 279.661 377.759 280.078L378.431 280.819C378.916 280.379 379.379 279.916 379.819 279.431ZM376.915 282.065L376.318 281.263C375.82 281.633 375.303 281.979 374.768 282.3L375.283 283.157C375.846 282.82 376.39 282.455 376.915 282.065ZM373.553 284.084L373.125 283.18C372.565 283.445 371.991 283.684 371.403 283.894L371.74 284.836C372.359 284.614 372.964 284.363 373.553 284.084ZM369.861 285.405L369.619 284.435C369.02 284.584 368.41 284.706 367.79 284.797L367.936 285.786C368.588 285.69 369.231 285.563 369.861 285.405ZM365.982 285.976L365.933 284.977C365.624 284.992 365.313 285 365 285H364.011V286H365C365.329 286 365.656 285.992 365.982 285.976ZM362.033 286V285H360.054V286H362.033ZM358.076 286V285H356.098V286H358.076ZM354.12 286V285H352.141V286H354.12ZM350.163 286V285H348.185V286H350.163ZM346.207 286V285H344.228V286H346.207ZM342.25 286V285H340.272V286H342.25ZM338.293 286V285H336.315V286H338.293ZM334.337 286V285H332.359V286H334.337ZM330.38 286V285H328.402V286H330.38ZM326.424 286V285H324.446V286H326.424ZM322.467 286V285H320.489V286H322.467ZM318.511 286V285H316.533V286H318.511ZM314.554 286V285H312.576V286H314.554ZM310.598 286V285H308.62V286H310.598ZM306.641 286V285H304.663V286H306.641ZM302.685 286V285H300.707V286H302.685ZM298.728 286V285H296.75V286H298.728ZM294.772 286V285H292.793V286H294.772ZM290.815 286V285H288.837V286H290.815ZM286.859 286V285H284.88V286H286.859ZM282.902 286V285H280.924V286H282.902ZM278.946 286V285H276.967V286H278.946ZM274.989 286V285H273.011V286H274.989ZM271.033 286V285H269.054V286H271.033ZM267.076 286V285H265.098V286H267.076ZM263.12 286V285H261.141V286H263.12ZM259.163 286V285H257.185V286H259.163ZM255.206 286V285H253.228V286H255.206ZM251.25 286V285H249.272V286H251.25ZM247.293 286V285H245.315V286H247.293ZM243.337 286V285H241.359V286H243.337ZM239.38 286V285H237.402V286H239.38ZM235.424 286V285H233.446V286H235.424ZM231.467 286V285H229.489V286H231.467ZM227.511 286V285H225.533V286H227.511ZM223.554 286V285H221.576V286H223.554ZM219.598 286V285H217.62V286H219.598ZM215.641 286V285H213.663V286H215.641ZM211.685 286V285H209.707V286H211.685ZM207.728 286V285H205.75V286H207.728ZM203.772 286V285H201.793V286H203.772ZM199.815 286V285H197.837V286H199.815ZM195.859 286V285H193.88V286H195.859ZM191.902 286V285H189.924V286H191.902ZM187.946 286V285H185.967V286H187.946Z" />
<path fill-rule="evenodd" clip-rule="evenodd" d="M147.975 238.555L146.976 238.507C146.992 238.174 147 237.838 147 237.5C147 237.162 146.992 236.826 146.976 236.493L147.975 236.445C147.991 236.794 148 237.146 148 237.5C148 237.854 147.991 238.206 147.975 238.555ZM147.77 234.344L146.781 234.49C146.682 233.821 146.552 233.162 146.39 232.516L147.36 232.274C147.53 232.952 147.667 233.642 147.77 234.344ZM146.749 230.255L145.807 230.592C145.58 229.957 145.323 229.337 145.037 228.734L145.94 228.305C146.24 228.939 146.51 229.589 146.749 230.255ZM144.944 226.445L144.087 226.96C143.741 226.384 143.367 225.826 142.967 225.288L143.77 224.692C144.189 225.256 144.581 225.841 144.944 226.445ZM142.431 223.061L141.69 223.733C141.239 223.236 140.764 222.761 140.267 222.31L140.939 221.569C141.46 222.042 141.958 222.54 142.431 223.061ZM139.308 220.23L138.712 221.033C138.174 220.633 137.616 220.259 137.04 219.913L137.555 219.056C138.159 219.419 138.744 219.811 139.308 220.23ZM135.695 218.06L135.266 218.963C134.663 218.677 134.043 218.42 133.408 218.193L133.745 217.251C134.411 217.49 135.061 217.76 135.695 218.06ZM131.726 216.64L131.484 217.61C130.838 217.448 130.179 217.318 129.51 217.219L129.656 216.23C130.357 216.333 131.048 216.47 131.726 216.64ZM127.555 216.025L127.507 217.024C127.174 217.008 126.838 217 126.5 217C126.162 217 125.826 217.008 125.493 217.024L125.445 216.025C125.794 216.009 126.146 216 126.5 216C126.854 216 127.206 216.009 127.555 216.025ZM123.344 216.23L123.49 217.219C122.821 217.318 122.162 217.448 121.516 217.61L121.274 216.64C121.952 216.47 122.642 216.333 123.344 216.23ZM119.255 217.251L119.592 218.193C118.957 218.42 118.337 218.677 117.734 218.963L117.305 218.06C117.939 217.76 118.589 217.49 119.255 217.251ZM115.445 219.056L115.96 219.913C115.384 220.259 114.826 220.633 114.288 221.033L113.692 220.23C114.256 219.811 114.841 219.419 115.445 219.056ZM112.061 221.569L112.733 222.31C112.236 222.761 111.761 223.236 111.31 223.733L110.569 223.061C111.042 222.54 111.54 222.042 112.061 221.569ZM109.23 224.692L110.033 225.288C109.633 225.826 109.259 226.384 108.913 226.96L108.056 226.445C108.419 225.841 108.811 225.256 109.23 224.692ZM107.06 228.305L107.963 228.734C107.677 229.337 107.42 229.957 107.193 230.592L106.251 230.255C106.49 229.589 106.76 228.939 107.06 228.305ZM105.64 232.274L106.61 232.516C106.448 233.162 106.318 233.821 106.219 234.49L105.23 234.344C105.333 233.643 105.47 232.952 105.64 232.274ZM105.025 236.445C105.009 236.794 105 237.146 105 237.5C105 237.854 105.009 238.206 105.025 238.555L106.024 238.507C106.008 238.174 106 237.838 106 237.5C106 237.162 106.008 236.826 106.024 236.493L105.025 236.445ZM105.23 240.656L106.219 240.51C106.318 241.179 106.448 241.838 106.61 242.484L105.64 242.726C105.47 242.048 105.333 241.358 105.23 240.656ZM106.251 244.745L107.193 244.408C107.42 245.043 107.677 245.663 107.963 246.266L107.06 246.695C106.76 246.061 106.49 245.411 106.251 244.745ZM108.056 248.555L108.913 248.04C109.259 248.616 109.633 249.174 110.033 249.712L109.23 250.308C108.811 249.744 108.419 249.159 108.056 248.555ZM110.569 251.939L111.31 251.267C111.761 251.764 112.236 252.239 112.733 252.69L112.061 253.431C111.54 252.958 111.042 252.46 110.569 251.939ZM113.692 254.77L114.288 253.967C114.826 254.367 115.384 254.741 115.96 255.087L115.445 255.944C114.841 255.581 114.256 255.189 113.692 254.77ZM117.305 256.94L117.734 256.037C118.337 256.323 118.957 256.58 119.592 256.807L119.255 257.749C118.589 257.51 117.939 257.24 117.305 256.94ZM121.274 258.36L121.516 257.39C122.162 257.552 122.821 257.682 123.49 257.781L123.344 258.77C122.643 258.667 121.952 258.53 121.274 258.36ZM125.445 258.975L125.493 257.976C125.826 257.992 126.162 258 126.5 258C126.838 258 127.174 257.992 127.507 257.976L127.555 258.975C127.206 258.991 126.854 259 126.5 259C126.146 259 125.794 258.991 125.445 258.975ZM129.656 258.77L129.51 257.781C130.179 257.682 130.838 257.552 131.484 257.39L131.726 258.36C131.048 258.53 130.358 258.667 129.656 258.77ZM133.745 257.749L133.408 256.807C134.043 256.58 134.663 256.323 135.266 256.037L135.695 256.94C135.061 257.24 134.411 257.51 133.745 257.749ZM137.555 255.944L137.04 255.087C137.616 254.741 138.174 254.367 138.712 253.967L139.308 254.77C138.744 255.189 138.159 255.581 137.555 255.944ZM140.939 253.431L140.267 252.69C140.764 252.239 141.239 251.764 141.69 251.267L142.431 251.939C141.958 252.46 141.46 252.958 140.939 253.431ZM143.77 250.308L142.967 249.712C143.367 249.174 143.741 248.616 144.087 248.04L144.944 248.555C144.581 249.159 144.189 249.744 143.77 250.308ZM145.94 246.695L145.037 246.266C145.323 245.663 145.58 245.043 145.807 244.408L146.749 244.745C146.51 245.411 146.24 246.061 145.94 246.695ZM147.36 242.726L146.39 242.484C146.552 241.838 146.682 241.179 146.781 240.51L147.77 240.656C147.667 241.357 147.53 242.048 147.36 242.726Z" />
<path fill-rule="evenodd" clip-rule="evenodd" d="M433.5 393C467.466 393 495 365.466 495 331.5C495 297.534 467.466 270 433.5 270C399.534 270 372 297.534 372 331.5C372 365.466 399.534 393 433.5 393ZM433.5 394C468.018 394 496 366.018 496 331.5C496 296.982 468.018 269 433.5 269C398.982 269 371 296.982 371 331.5C371 366.018 398.982 394 433.5 394Z" />
<path fill-rule="evenodd" clip-rule="evenodd" d="M432.046 359.116L432.046 300.977L433.046 300.977L433.046 359.116L432.046 359.116Z" />
<path fill-rule="evenodd" clip-rule="evenodd" d="M402.977 330.047L461.116 330.047L461.116 331.047L402.977 331.047L402.977 330.047Z" />
<path fill-rule="evenodd" clip-rule="evenodd" d="M496 276.646C496.164 276.837 496.327 277.028 496.49 277.219L496.871 276.896L497.253 276.573C496.841 276.086 496.423 275.604 496 275.127V276.646ZM516.494 331.492L516.994 331.498C516.998 331.166 517 330.833 517 330.5C517 330.167 516.998 329.834 516.994 329.502L516.494 329.508L515.994 329.514C515.998 329.842 516 330.171 516 330.5C516 330.829 515.998 331.158 515.994 331.486L516.494 331.492ZM516.448 327.532L516.948 327.514C516.924 326.851 516.893 326.19 516.855 325.531L516.355 325.56L515.856 325.59C515.895 326.241 515.925 326.894 515.948 327.549L516.448 327.532ZM516.216 323.587L516.715 323.546C516.66 322.886 516.598 322.227 516.528 321.571L516.031 321.624L515.534 321.677C515.603 322.325 515.664 322.976 515.718 323.628L516.216 323.587ZM515.798 319.659L516.294 319.594C516.209 318.937 516.115 318.283 516.014 317.63L515.52 317.707L515.026 317.783C515.126 318.428 515.218 319.074 515.303 319.723L515.798 319.659ZM515.194 315.755L515.686 315.667C515.57 315.015 515.445 314.365 515.313 313.718L514.823 313.818L514.333 313.918C514.464 314.557 514.587 315.199 514.702 315.843L515.194 315.755ZM514.404 311.884L514.892 311.773C514.744 311.127 514.588 310.484 514.425 309.844L513.941 309.967L513.456 310.09C513.617 310.723 513.771 311.358 513.917 311.996L514.404 311.884ZM513.43 308.056L513.911 307.921C513.733 307.283 513.546 306.648 513.353 306.016L512.875 306.162L512.397 306.309C512.588 306.933 512.772 307.56 512.949 308.191L513.43 308.056ZM512.273 304.279L512.748 304.121C512.538 303.492 512.322 302.866 512.098 302.244L511.628 302.413L511.157 302.583C511.378 303.197 511.592 303.815 511.799 304.437L512.273 304.279ZM510.937 300.562L511.403 300.381C511.164 299.763 510.917 299.148 510.664 298.537L510.202 298.729L509.74 298.92C509.991 299.524 510.234 300.131 510.47 300.742L510.937 300.562ZM509.423 296.912L509.88 296.71C509.612 296.104 509.336 295.502 509.054 294.903L508.602 295.117L508.15 295.33C508.429 295.921 508.701 296.516 508.966 297.115L509.423 296.912ZM507.737 293.34L508.184 293.116C507.887 292.523 507.583 291.935 507.272 291.35L506.831 291.585L506.389 291.82C506.696 292.397 506.997 292.979 507.29 293.564L507.737 293.34ZM505.882 289.852L506.318 289.607C505.993 289.029 505.661 288.456 505.323 287.887L504.893 288.142L504.463 288.398C504.798 288.96 505.125 289.526 505.447 290.097L505.882 289.852ZM503.863 286.456L504.287 286.19C503.935 285.629 503.576 285.072 503.211 284.52L502.794 284.795L502.376 285.071C502.737 285.617 503.092 286.167 503.44 286.722L503.863 286.456ZM501.685 283.16L502.095 282.875C501.717 282.331 501.332 281.791 500.941 281.257L500.538 281.552L500.134 281.847C500.52 282.375 500.9 282.908 501.274 283.446L501.685 283.16ZM499.352 279.971L499.749 279.667C499.345 279.141 498.935 278.621 498.519 278.105L498.13 278.419L497.741 278.733C498.152 279.242 498.557 279.757 498.956 280.276L499.352 279.971ZM355.372 302.413L354.902 302.244C354.678 302.866 354.462 303.492 354.252 304.121L354.727 304.279L355.201 304.437C355.408 303.815 355.622 303.197 355.843 302.583L355.372 302.413ZM354.125 306.162L353.647 306.016C353.454 306.648 353.267 307.283 353.089 307.921L353.57 308.056L354.051 308.191C354.228 307.56 354.412 306.933 354.603 306.309L354.125 306.162ZM353.059 309.967L352.575 309.843C352.412 310.484 352.256 311.127 352.108 311.773L352.596 311.884L353.083 311.996C353.229 311.358 353.383 310.722 353.544 310.09L353.059 309.967ZM352.177 313.818L351.687 313.718C351.555 314.365 351.43 315.014 351.314 315.667L351.806 315.755L352.298 315.843C352.413 315.199 352.536 314.557 352.667 313.918L352.177 313.818ZM351.48 317.707L350.986 317.63C350.885 318.283 350.791 318.937 350.706 319.594L351.202 319.659L351.697 319.723C351.782 319.074 351.874 318.428 351.974 317.783L351.48 317.707ZM350.969 321.624L350.472 321.571C350.402 322.227 350.34 322.886 350.285 323.546L350.784 323.587L351.282 323.628C351.336 322.976 351.397 322.325 351.466 321.677L350.969 321.624ZM350.645 325.56L350.145 325.531C350.107 326.19 350.076 326.851 350.052 327.514L350.552 327.532L351.052 327.549C351.075 326.894 351.105 326.241 351.144 325.59L350.645 325.56ZM350 330.5C350 330.167 350.002 329.834 350.006 329.502L350.506 329.508L351.006 329.514C351.002 329.842 351 330.171 351 330.5C351 330.829 351.002 331.158 351.006 331.486L350.506 331.492L350.006 331.498C350.002 331.166 350 330.833 350 330.5ZM350.552 333.468L350.052 333.486C350.076 334.149 350.107 334.81 350.145 335.469L350.645 335.44L351.144 335.41C351.105 334.759 351.075 334.106 351.052 333.451L350.552 333.468ZM350.784 337.413L350.285 337.454C350.34 338.114 350.402 338.773 350.472 339.429L350.969 339.376L351.466 339.323C351.397 338.675 351.336 338.024 351.282 337.372L350.784 337.413ZM351.202 341.341L350.706 341.406C350.791 342.063 350.885 342.717 350.986 343.37L351.48 343.293L351.974 343.217C351.874 342.572 351.782 341.926 351.697 341.277L351.202 341.341ZM351.806 345.245L351.314 345.333C351.43 345.985 351.555 346.635 351.687 347.282L352.177 347.182L352.667 347.082C352.536 346.443 352.413 345.801 352.298 345.157L351.806 345.245ZM352.596 349.116L352.108 349.227C352.256 349.873 352.412 350.516 352.575 351.156L353.059 351.033L353.544 350.91C353.383 350.277 353.229 349.642 353.083 349.004L352.596 349.116ZM353.57 352.944L353.089 353.079C353.267 353.717 353.454 354.352 353.647 354.984L354.125 354.838L354.603 354.691C354.412 354.067 354.228 353.44 354.051 352.809L353.57 352.944ZM354.727 356.721L354.252 356.879C354.462 357.508 354.678 358.134 354.902 358.756L355.372 358.587L355.843 358.417C355.622 357.803 355.408 357.185 355.201 356.563L354.727 356.721ZM356.063 360.438L355.597 360.619C355.836 361.237 356.083 361.852 356.336 362.463L356.798 362.271L357.26 362.08C357.009 361.476 356.766 360.869 356.53 360.258L356.063 360.438ZM357.577 364.088L357.12 364.29C357.388 364.896 357.664 365.498 357.946 366.097L358.398 365.883L358.85 365.67C358.571 365.079 358.299 364.484 358.034 363.885L357.577 364.088ZM359.263 367.66L358.816 367.884C359.113 368.477 359.417 369.065 359.728 369.65L360.169 369.415L360.611 369.18C360.304 368.603 360.003 368.021 359.71 367.436L359.263 367.66ZM361.118 371.148L360.682 371.393C361.007 371.971 361.339 372.544 361.677 373.113L362.107 372.858L362.537 372.602C362.202 372.04 361.875 371.474 361.553 370.903L361.118 371.148ZM363.137 374.544L362.713 374.81C363.065 375.371 363.424 375.928 363.789 376.48L364.206 376.205L364.624 375.929C364.263 375.383 363.908 374.833 363.56 374.278L363.137 374.544ZM365.315 377.84L364.905 378.125C365.283 378.669 365.668 379.209 366.059 379.743L366.462 379.448L366.866 379.153C366.48 378.625 366.1 378.092 365.726 377.554L365.315 377.84ZM367.648 381.029L367.251 381.333C367.655 381.859 368.065 382.379 368.481 382.895L368.87 382.581L369.259 382.267C368.848 381.758 368.443 381.243 368.044 380.724L367.648 381.029ZM370.129 384.104L369.747 384.427C370.175 384.932 370.609 385.433 371.049 385.928L371.423 385.596L371.797 385.264C371.362 384.775 370.933 384.28 370.51 383.781L370.129 384.104ZM372.752 387.058L372.386 387.398C372.838 387.883 373.295 388.363 373.758 388.837L374.116 388.487L374.473 388.138C374.016 387.67 373.564 387.196 373.118 386.717L372.752 387.058ZM375.513 389.884L375.163 390.242C375.637 390.705 376.117 391.162 376.602 391.614L376.942 391.248L377.283 390.882C376.804 390.436 376.33 389.984 375.862 389.526L375.513 389.884ZM378.404 392.577L378.072 392.951C378.567 393.391 379.068 393.825 379.573 394.253L379.896 393.871L380.219 393.49C379.72 393.067 379.225 392.638 378.736 392.203L378.404 392.577ZM381.419 395.13L381.105 395.519C381.621 395.935 382.141 396.345 382.667 396.749L382.971 396.352L383.276 395.956C382.757 395.557 382.242 395.152 381.733 394.741L381.419 395.13ZM384.552 397.538L384.257 397.941C384.791 398.332 385.33 398.717 385.875 399.095L386.16 398.685L386.446 398.274C385.908 397.9 385.375 397.52 384.847 397.134L384.552 397.538ZM389.19 401.287C388.629 400.935 388.072 400.576 387.52 400.211L387.795 399.794L388.071 399.376C388.617 399.737 389.167 400.092 389.722 400.44L389.456 400.863L389.19 401.287ZM391.142 401.893L390.887 402.323C391.456 402.661 392.029 402.993 392.607 403.318L392.852 402.882L393.097 402.446C392.526 402.125 391.96 401.798 391.398 401.463L391.142 401.893ZM394.585 403.831L394.35 404.272C394.935 404.583 395.523 404.887 396.116 405.184L396.34 404.737L396.564 404.29C395.979 403.997 395.397 403.696 394.82 403.389L394.585 403.831ZM398.117 405.602L397.903 406.054C398.502 406.336 399.104 406.612 399.71 406.88L399.912 406.423L400.115 405.966C399.516 405.701 398.921 405.429 398.33 405.15L398.117 405.602ZM401.729 407.202L401.537 407.664C402.148 407.917 402.763 408.164 403.381 408.403L403.562 407.937L403.742 407.47C403.131 407.234 402.524 406.991 401.92 406.74L401.729 407.202ZM405.413 408.628L405.244 409.098C405.866 409.322 406.492 409.538 407.121 409.748L407.279 409.273L407.437 408.799C406.815 408.592 406.197 408.378 405.583 408.157L405.413 408.628ZM409.162 409.875L409.016 410.353C409.648 410.546 410.283 410.733 410.921 410.911L411.056 410.43L411.191 409.949C410.56 409.772 409.933 409.588 409.309 409.397L409.162 409.875ZM412.967 410.941L412.843 411.425C413.484 411.588 414.127 411.744 414.773 411.892L414.884 411.404L414.996 410.917C414.358 410.771 413.722 410.617 413.09 410.456L412.967 410.941ZM416.818 411.823L416.718 412.313C417.365 412.445 418.014 412.57 418.667 412.686L418.755 412.194L418.843 411.702C418.199 411.587 417.557 411.464 416.918 411.333L416.818 411.823ZM420.707 412.52L420.63 413.014C421.283 413.115 421.937 413.209 422.594 413.294L422.659 412.798L422.723 412.303C422.074 412.218 421.428 412.126 420.783 412.026L420.707 412.52ZM424.624 413.031L424.571 413.528C425.227 413.598 425.886 413.66 426.546 413.715L426.587 413.216L426.628 412.718C425.976 412.664 425.325 412.603 424.677 412.534L424.624 413.031ZM428.56 413.355L428.531 413.855C429.19 413.893 429.851 413.924 430.514 413.948L430.532 413.448L430.549 412.948C429.894 412.925 429.241 412.895 428.59 412.856L428.56 413.355ZM432.508 413.494L432.502 413.994C432.834 413.998 433.167 414 433.5 414C433.833 414 434.166 413.998 434.498 413.994L434.492 413.494L434.486 412.994C434.158 412.998 433.829 413 433.5 413C433.171 413 432.842 412.998 432.514 412.994L432.508 413.494ZM436.468 413.448L436.486 413.948C437.149 413.924 437.81 413.893 438.469 413.855L438.44 413.355L438.41 412.856C437.759 412.895 437.106 412.925 436.451 412.948L436.468 413.448ZM440.413 413.216L440.454 413.715C441.114 413.66 441.773 413.598 442.429 413.528L442.376 413.031L442.323 412.534C441.675 412.603 441.024 412.664 440.372 412.718L440.413 413.216ZM444.341 412.798L444.406 413.294C445.063 413.209 445.717 413.115 446.37 413.014L446.293 412.52L446.217 412.026C445.572 412.126 444.926 412.218 444.277 412.303L444.341 412.798ZM448.245 412.194L448.333 412.686C448.985 412.57 449.635 412.445 450.282 412.313L450.182 411.823L450.082 411.333C449.443 411.464 448.801 411.587 448.157 411.702L448.245 412.194ZM452.116 411.404L452.227 411.892C452.873 411.744 453.516 411.588 454.156 411.425L454.033 410.941L453.91 410.456C453.277 410.617 452.642 410.771 452.004 410.917L452.116 411.404ZM455.944 410.43L456.079 410.911C456.717 410.733 457.352 410.546 457.984 410.353L457.838 409.875L457.691 409.397C457.067 409.588 456.44 409.772 455.809 409.949L455.944 410.43ZM459.721 409.273L459.879 409.748C460.508 409.538 461.134 409.322 461.756 409.098L461.587 408.628L461.417 408.157C460.803 408.378 460.185 408.592 459.563 408.799L459.721 409.273ZM463.438 407.937L463.619 408.403C464.237 408.164 464.852 407.917 465.463 407.664L465.271 407.202L465.08 406.74C464.476 406.991 463.869 407.234 463.258 407.47L463.438 407.937ZM467.088 406.423L467.29 406.88C467.896 406.612 468.498 406.336 469.097 406.054L468.883 405.602L468.67 405.15C468.079 405.429 467.484 405.701 466.885 405.966L467.088 406.423ZM470.66 404.737L470.884 405.184C471.477 404.887 472.065 404.583 472.65 404.272L472.415 403.831L472.18 403.389C471.603 403.696 471.021 403.997 470.436 404.29L470.66 404.737ZM474.148 402.882L474.393 403.318C474.971 402.993 475.544 402.661 476.113 402.323L475.858 401.893L475.602 401.463C475.04 401.798 474.474 402.125 473.903 402.447L474.148 402.882ZM477.544 400.863L477.81 401.287C478.371 400.935 478.928 400.576 479.48 400.211L479.205 399.794L478.929 399.376C478.383 399.737 477.833 400.092 477.278 400.44L477.544 400.863ZM480.84 398.685L481.125 399.095C481.669 398.717 482.209 398.332 482.743 397.941L482.448 397.538L482.153 397.134C481.625 397.52 481.092 397.9 480.554 398.274L480.84 398.685ZM484.029 396.352L484.333 396.749C484.859 396.345 485.379 395.935 485.895 395.519L485.581 395.13L485.267 394.741C484.758 395.152 484.243 395.557 483.724 395.956L484.029 396.352ZM487.104 393.871L487.427 394.253C487.932 393.825 488.433 393.391 488.928 392.951L488.596 392.577L488.264 392.203C487.775 392.638 487.28 393.067 486.781 393.49L487.104 393.871ZM490.058 391.248L490.398 391.614C490.883 391.162 491.363 390.705 491.837 390.242L491.487 389.884L491.138 389.527C490.67 389.984 490.196 390.436 489.717 390.882L490.058 391.248ZM494.614 387.398C494.162 387.883 493.705 388.363 493.242 388.837L492.884 388.487L492.526 388.138C492.984 387.67 493.436 387.196 493.882 386.717L494.248 387.058L494.614 387.398ZM495.577 385.596L495.951 385.928C496.391 385.433 496.825 384.932 497.253 384.427L496.871 384.104L496.49 383.781C496.067 384.28 495.638 384.775 495.203 385.264L495.577 385.596ZM498.13 382.581L498.519 382.895C498.935 382.379 499.345 381.859 499.749 381.333L499.352 381.029L498.956 380.724C498.557 381.243 498.152 381.758 497.741 382.267L498.13 382.581ZM500.538 379.448L500.941 379.743C501.332 379.209 501.717 378.669 502.095 378.125L501.685 377.84L501.274 377.554C500.9 378.092 500.52 378.625 500.134 379.153L500.538 379.448ZM502.794 376.205L503.211 376.481C503.576 375.928 503.934 375.371 504.287 374.81L503.863 374.544L503.44 374.278C503.092 374.833 502.737 375.383 502.376 375.929L502.794 376.205ZM504.893 372.858L505.323 373.113C505.661 372.544 505.993 371.971 506.318 371.393L505.882 371.148L505.446 370.903C505.125 371.474 504.798 372.04 504.463 372.602L504.893 372.858ZM506.831 369.415L507.272 369.65C507.583 369.065 507.887 368.477 508.184 367.884L507.737 367.66L507.29 367.436C506.997 368.021 506.696 368.603 506.389 369.18L506.831 369.415ZM508.602 365.883L509.054 366.097C509.336 365.498 509.612 364.896 509.88 364.29L509.423 364.088L508.966 363.885C508.701 364.484 508.429 365.079 508.15 365.67L508.602 365.883ZM510.202 362.271L510.664 362.463C510.917 361.852 511.164 361.237 511.403 360.619L510.937 360.438L510.47 360.258C510.234 360.869 509.991 361.476 509.74 362.08L510.202 362.271ZM511.628 358.587L512.098 358.756C512.322 358.134 512.538 357.508 512.748 356.879L512.273 356.721L511.799 356.563C511.592 357.185 511.378 357.803 511.157 358.417L511.628 358.587ZM512.875 354.838L513.353 354.984C513.546 354.352 513.733 353.717 513.911 353.079L513.43 352.944L512.949 352.809C512.772 353.44 512.588 354.067 512.397 354.691L512.875 354.838ZM513.941 351.033L514.425 351.157C514.588 350.516 514.744 349.873 514.892 349.227L514.404 349.116L513.917 349.004C513.771 349.642 513.617 350.278 513.456 350.91L513.941 351.033ZM514.823 347.182L515.313 347.282C515.445 346.635 515.57 345.986 515.686 345.333L515.194 345.245L514.702 345.157C514.587 345.801 514.464 346.443 514.333 347.082L514.823 347.182ZM515.52 343.293L516.014 343.37C516.115 342.717 516.209 342.063 516.294 341.406L515.798 341.341L515.303 341.277C515.218 341.926 515.126 342.572 515.026 343.217L515.52 343.293ZM516.031 339.376L516.528 339.429C516.598 338.773 516.66 338.114 516.715 337.454L516.216 337.413L515.718 337.372C515.664 338.024 515.603 338.675 515.534 339.323L516.031 339.376ZM516.355 335.44L516.855 335.469C516.893 334.81 516.924 334.149 516.948 333.486L516.448 333.468L515.948 333.451C515.925 334.106 515.895 334.759 515.856 335.41L516.355 335.44Z" />
</svg>
