<svg id="logo" viewBox="0 0 649 204" xmlns="http://www.w3.org/2000/svg">
<path fill-rule="evenodd" clip-rule="evenodd" d="M59 87C73.9117 87 86 74.9117 86 60C86 56.1211 85.182 52.4331 83.7092 49.0994L60.9268 71.022L58.7946 73.0738L56.4167 71.3125L42.9167 61.3125L47.0833 55.6875L58.2054 63.9262L79.9663 42.9865C75.0158 36.8933 67.4626 33 59 33C44.0883 33 32 45.0883 32 60C32 74.9117 44.0883 87 59 87Z" />
<path d="M100.3 118.5H133.9V131.5H100.3V118.5ZM101.5 157H85.3V87H138.2V100H101.5V157ZM182.484 158.2C176.95 158.2 171.817 157.3 167.084 155.5C162.417 153.7 158.35 151.167 154.884 147.9C151.484 144.633 148.817 140.8 146.884 136.4C145.017 132 144.084 127.2 144.084 122C144.084 116.8 145.017 112 146.884 107.6C148.817 103.2 151.517 99.3667 154.984 96.1C158.45 92.8333 162.517 90.3 167.184 88.5C171.85 86.7 176.917 85.8 182.384 85.8C187.917 85.8 192.984 86.7 197.584 88.5C202.25 90.3 206.284 92.8333 209.684 96.1C213.15 99.3667 215.85 103.2 217.784 107.6C219.717 111.933 220.684 116.733 220.684 122C220.684 127.2 219.717 132.033 217.784 136.5C215.85 140.9 213.15 144.733 209.684 148C206.284 151.2 202.25 153.7 197.584 155.5C192.984 157.3 187.95 158.2 182.484 158.2ZM182.384 144.4C185.517 144.4 188.384 143.867 190.984 142.8C193.65 141.733 195.984 140.2 197.984 138.2C199.984 136.2 201.517 133.833 202.584 131.1C203.717 128.367 204.284 125.333 204.284 122C204.284 118.667 203.717 115.633 202.584 112.9C201.517 110.167 199.984 107.8 197.984 105.8C196.05 103.8 193.75 102.267 191.084 101.2C188.417 100.133 185.517 99.6 182.384 99.6C179.25 99.6 176.35 100.133 173.684 101.2C171.084 102.267 168.784 103.8 166.784 105.8C164.784 107.8 163.217 110.167 162.084 112.9C161.017 115.633 160.484 118.667 160.484 122C160.484 125.267 161.017 128.3 162.084 131.1C163.217 133.833 164.75 136.2 166.684 138.2C168.684 140.2 171.017 141.733 173.684 142.8C176.35 143.867 179.25 144.4 182.384 144.4ZM266.359 158.2C260.959 158.2 255.925 157.333 251.259 155.6C246.659 153.8 242.659 151.267 239.259 148C235.859 144.733 233.192 140.9 231.259 136.5C229.392 132.1 228.459 127.267 228.459 122C228.459 116.733 229.392 111.9 231.259 107.5C233.192 103.1 235.859 99.2667 239.259 96C242.725 92.7333 246.759 90.2333 251.359 88.5C255.959 86.7 260.992 85.8 266.459 85.8C272.525 85.8 277.992 86.8667 282.859 89C287.792 91.0667 291.925 94.1333 295.259 98.2L284.859 107.8C282.459 105.067 279.792 103.033 276.859 101.7C273.925 100.3 270.725 99.6 267.259 99.6C263.992 99.6 260.992 100.133 258.259 101.2C255.525 102.267 253.159 103.8 251.159 105.8C249.159 107.8 247.592 110.167 246.459 112.9C245.392 115.633 244.859 118.667 244.859 122C244.859 125.333 245.392 128.367 246.459 131.1C247.592 133.833 249.159 136.2 251.159 138.2C253.159 140.2 255.525 141.733 258.259 142.8C260.992 143.867 263.992 144.4 267.259 144.4C270.725 144.4 273.925 143.733 276.859 142.4C279.792 141 282.459 138.9 284.859 136.1L295.259 145.7C291.925 149.767 287.792 152.867 282.859 155C277.992 157.133 272.492 158.2 266.359 158.2ZM336.908 158.2C326.974 158.2 319.208 155.433 313.608 149.9C308.008 144.367 305.208 136.467 305.208 126.2V87H321.408V125.6C321.408 132.267 322.774 137.067 325.508 140C328.241 142.933 332.074 144.4 337.008 144.4C341.941 144.4 345.774 142.933 348.508 140C351.241 137.067 352.608 132.267 352.608 125.6V87H368.608V126.2C368.608 136.467 365.808 144.367 360.208 149.9C354.608 155.433 346.841 158.2 336.908 158.2ZM407.616 158.2C402.016 158.2 396.65 157.467 391.516 156C386.383 154.467 382.25 152.5 379.116 150.1L384.616 137.9C387.616 140.033 391.15 141.8 395.216 143.2C399.35 144.533 403.516 145.2 407.716 145.2C410.916 145.2 413.483 144.9 415.416 144.3C417.416 143.633 418.883 142.733 419.816 141.6C420.75 140.467 421.216 139.167 421.216 137.7C421.216 135.833 420.483 134.367 419.016 133.3C417.55 132.167 415.616 131.267 413.216 130.6C410.816 129.867 408.15 129.2 405.216 128.6C402.35 127.933 399.45 127.133 396.516 126.2C393.65 125.267 391.016 124.067 388.616 122.6C386.216 121.133 384.25 119.2 382.716 116.8C381.25 114.4 380.516 111.333 380.516 107.6C380.516 103.6 381.583 99.9667 383.716 96.7C385.916 93.3667 389.183 90.7333 393.516 88.8C397.916 86.8 403.416 85.8 410.016 85.8C414.416 85.8 418.75 86.3333 423.016 87.4C427.283 88.4 431.05 89.9333 434.316 92L429.316 104.3C426.05 102.433 422.783 101.067 419.516 100.2C416.25 99.2667 413.05 98.8 409.916 98.8C406.783 98.8 404.216 99.1667 402.216 99.9C400.216 100.633 398.783 101.6 397.916 102.8C397.05 103.933 396.616 105.267 396.616 106.8C396.616 108.6 397.35 110.067 398.816 111.2C400.283 112.267 402.216 113.133 404.616 113.8C407.016 114.467 409.65 115.133 412.516 115.8C415.45 116.467 418.35 117.233 421.216 118.1C424.15 118.967 426.816 120.133 429.216 121.6C431.616 123.067 433.55 125 435.016 127.4C436.55 129.8 437.316 132.833 437.316 136.5C437.316 140.433 436.216 144.033 434.016 147.3C431.816 150.567 428.516 153.2 424.116 155.2C419.783 157.2 414.283 158.2 407.616 158.2ZM448.386 157V87H464.586V157H448.386ZM496.198 118.5H529.798V131.5H496.198V118.5ZM497.398 157H481.198V87H534.098V100H497.398V157ZM562.466 157V128.4L566.166 138.2L535.366 87H552.566L576.166 126.3H566.266L589.966 87H605.866L575.066 138.2L578.666 128.4V157H562.466Z"/>
</svg>
